<svg id="iea" xmlns="http://www.w3.org/2000/svg" viewBox="0 0 103.5 58.37"><title>iea</title><path d="M127.44,24H117c-.23-5.24,3-9.78,8.59-11.8a32.37,32.37,0,0,1,20.68-.37c5.76,1.74,7.87,4.88,8,10.91.15,8.7.27,17.4.46,26.09a35.51,35.51,0,0,0,.58,4.15H144.54l-1.28-3.45c-5.53,4.15-11.5,5.69-18.16,4.28-5.92-1.25-9.52-5.23-9.84-11-.35-6.31,2.31-10.5,8.55-12.17,4.62-1.24,9.46-1.63,14.18-2.5,3.93-.73,5.28-2.33,5-5.52a4.57,4.57,0,0,0-3.47-4.32C134,16.45,129.76,18.36,127.44,24Zm15.67,9.36c-3.37.57-6.36,1-9.29,1.62a16.05,16.05,0,0,0-5.21,2,5.45,5.45,0,0,0-.25,8.66c4.62,3.42,13.09.61,14.34-4.94C143.24,38.3,143,35.76,143.11,33.35Z" transform="translate(-51.75 -10.31)"/><path d="M110.28,34.89c-8.88,0-17.59,0-26.3,0-3.8,0-3.89.14-3,3.65,1.83,7.5,11.58,10.22,17.28,4.52a7.59,7.59,0,0,1,6.54-2.45c1.46.1,2.92,0,4.39,0-.33,7.84-10.09,14.47-20,13.68C74.1,53.1,68.4,41.92,69.38,30.2c1.08-13,11.35-21.11,24.06-19.63C104.41,11.85,112.08,22.71,110.28,34.89Zm-11-7c-.91-6.59-4.05-9.4-9.72-9.06s-8.7,3.52-8.81,9.06Z" transform="translate(-51.75 -10.31)"/><path d="M51.75,53V11.94H62.41V53Z" transform="translate(-51.75 -10.31)"/><path d="M51.76,68.69V60.55H62.47v8.14Z" transform="translate(-51.75 -10.31)"/><path d="M75.71,68.69V60.55H86.42v8.14Z" transform="translate(-51.75 -10.31)"/><path d="M99.34,68.69V60.55h10.71v8.14Z" transform="translate(-51.75 -10.31)"/><path d="M122.5,68.69V60.55h10.71v8.14Z" transform="translate(-51.75 -10.31)"/><path d="M144.54,68.69V60.55h10.71v8.14Z" transform="translate(-51.75 -10.31)"/></svg>