<svg id="isega" xmlns="http://www.w3.org/2000/svg" viewBox="0 0 153.51 68.22"><title>isega</title><path d="M62.49,51.85H74.36c1.12,0,1.44.29,1.64,1.4a4.22,4.22,0,0,1-.13,1.66,1.56,1.56,0,0,1-1.64,1H50.71c-1.08,0-1.1,0-1.1,1.09v3.61a2.42,2.42,0,0,0,1.32,2,5.91,5.91,0,0,0,2.85.84c6.67.36,13.34.11,20,.16a6.15,6.15,0,0,1,1.2.1,1,1,0,0,1,.88.81,3.46,3.46,0,0,1-.26,2.41,1.75,1.75,0,0,1-1.61.75H56.53a19.89,19.89,0,0,1-6.05-.87A10.53,10.53,0,0,1,46,64.29,4.93,4.93,0,0,1,44.83,62c-.49-1.91-.18-3.84-.23-5.76-.06-2.83,0-5.67,0-8.5-.06-3.3,1.58-5.41,4.48-6.68a16.2,16.2,0,0,1,5.48-1.21c2.16-.15,4.31-.07,6.46-.1a1.85,1.85,0,0,1,1.85.82,2.42,2.42,0,0,1,.06,2.54,1.49,1.49,0,0,1-1.37.71c-1.89,0-3.78-.18-5.66,0a16.86,16.86,0,0,0-4.46.77,2.79,2.79,0,0,0-2,2.86v3.34c0,1.11.12,1.1,1.07,1.1Z" transform="translate(-0.03 0.03)"/><path d="M133.23,39.45c1.73,0,2.56.39,3.27,1.49,1.64,2.54,3.48,4.94,5.22,7.41,2.47,3.51,4.9,7.07,7.41,10.55,1.38,1.91,2.72,3.85,4.08,5.77a2.48,2.48,0,0,1-.06,2.58,2.32,2.32,0,0,1-2.22.92c-1.33,0-1.85-1-2.46-1.91-1.29-1.83-2.54-3.69-3.8-5.55a1,1,0,0,0-.88-.48H123.34a1,1,0,0,0-.95.48q-1.65,2.46-3.33,4.89a17.48,17.48,0,0,1-1.28,1.77,1.66,1.66,0,0,1-2,.39,2.34,2.34,0,0,1-1.58-1.52.9.9,0,0,1,.16-.7c.84-1.54,1.91-2.93,2.85-4.41,1.86-2.94,3.8-5.82,5.7-8.73s3.6-5.55,5.41-8.32q1.11-1.7,2.29-3.35A3.24,3.24,0,0,1,133.23,39.45Z" transform="translate(-0.03 0.03)"/><path d="M22,63.63c3,0,5.94.09,8.9,0,1.82-.07,3.7,0,5.41-.93a2.23,2.23,0,0,0,1.38-2.2,10.78,10.78,0,0,0-.07-2.35,2.81,2.81,0,0,0-2.28-1.92,26.22,26.22,0,0,0-6.3-.7c-3.45-.13-6.9-.23-10.35-.43a10.14,10.14,0,0,1-5.52-1.81,4.7,4.7,0,0,1-2.1-3.84v-2.9a5.46,5.46,0,0,1,3.27-5.26A11.56,11.56,0,0,1,19.53,40c2-.06,4.07-.17,6.11-.21.61,0,1.33,0,1.64.7a2.69,2.69,0,0,1,0,2.73,1.34,1.34,0,0,1-1.16.58,12.18,12.18,0,0,1-1.48,0,28.92,28.92,0,0,0-5,.34,4.26,4.26,0,0,0-3.49,1.8,1.37,1.37,0,0,0-.19.75v2a1.81,1.81,0,0,0,1.12,1.78,7.6,7.6,0,0,0,3.26.86c3.75.24,7.5.07,11.25.15a22.42,22.42,0,0,1,4.76.59,11.31,11.31,0,0,1,4.06,1.84,5.51,5.51,0,0,1,2.3,4.48,18.34,18.34,0,0,1-.29,4.69,4.17,4.17,0,0,1-2.26,2.88,14.19,14.19,0,0,1-4.62,1.37,75,75,0,0,1-10.45.38H13.15c-.7,0-1.43,0-1.79-.75a3,3,0,0,1,0-2.83c.3-.57,1-.46,1.52-.46C16,63.62,19,63.63,22,63.63Z" transform="translate(-0.03 0.03)"/><path d="M83.19,53.72v6.61a2.65,2.65,0,0,0,1.89,2.59,12.39,12.39,0,0,0,3.2.57c3.82.26,7.63,0,11.45.14a26.89,26.89,0,0,0,3.76-.22,6.19,6.19,0,0,0,3.35-1.34,1.65,1.65,0,0,0,.66-1.38V53.87c0-1.4.65-2.18,2-2a17,17,0,0,0,1.75,0,1.06,1.06,0,0,1,1.1,1,61.13,61.13,0,0,1,0,9.15,4.85,4.85,0,0,1-2.4,3.43,12.85,12.85,0,0,1-4.45,1.79,24.86,24.86,0,0,1-5.33.38H91.06a23.61,23.61,0,0,1-6.71-.7,10,10,0,0,1-4.55-2.34,5.28,5.28,0,0,1-1.58-3.76V46.45a5.4,5.4,0,0,1,3.14-4.84A15.16,15.16,0,0,1,86.3,40a28.43,28.43,0,0,1,5-.31h3c.71,0,1.47,0,1.88.73a2.64,2.64,0,0,1,0,2.67,1.46,1.46,0,0,1-1.31.67H92.64a34.6,34.6,0,0,0-6,.33,4.86,4.86,0,0,0-2.93,1.26,1.66,1.66,0,0,0-.57,1.3C83.19,49,83.19,51.36,83.19,53.72Z" transform="translate(-0.03 0.03)"/><path d="M8.15,53.71V65.64A1.76,1.76,0,0,1,5.9,67.59a9.47,9.47,0,0,0-1.21,0A1.31,1.31,0,0,1,3.23,66.1q0-10.48,0-21V41.26c0-.81.3-1.26,1.09-1.32a9.85,9.85,0,0,1,2.46-.1c1,.16,1.34.69,1.34,1.74C8.16,45.61,8.15,49.66,8.15,53.71Z" transform="translate(-0.03 0.03)"/><path d="M1.08,27.12a11.75,11.75,0,0,1,.23-1.73,2.44,2.44,0,0,1,2.4-1.94,14.07,14.07,0,0,1,2.6.23c1.5.22,2.91.79,4.42,1a12.55,12.55,0,0,1,2.38.58,2.49,2.49,0,0,1,1.23,2.84,9.06,9.06,0,0,1-1,3.05,6.83,6.83,0,0,1-3.16,2.75,6.58,6.58,0,0,1-2.38.53,6.21,6.21,0,0,1-5.57-3.31A6.18,6.18,0,0,1,1.08,27.12Z" transform="translate(-0.03 0.03)"/><path d="M25.71,16.27a2.18,2.18,0,0,1-2,2.18,1,1,0,0,1-.56-.15,2.35,2.35,0,0,0-1.44-.42c-.65,0-.87-.6-1.24-1s-.37-.87-.84-.74-.34.69-.48,1.07a32,32,0,0,1-1,3.43,9.83,9.83,0,0,0-.38,1.12c-.07.08-.11.21-.26.13a5.06,5.06,0,0,1,.34-2,26.59,26.59,0,0,0,.72-3.26c0-.37.24-.67.27-1a3.35,3.35,0,0,0-1.63-3.11c-1-.68-2-1.3-2.94-1.94-.08-.08-.22-.13-.13-.29a6.82,6.82,0,0,1,3.8,1.53c1,.8,1.53,2,2.4,2.89A5,5,0,0,0,22,16.08a1.27,1.27,0,0,1,.4.25,1.92,1.92,0,0,0,3.14-.2C25.71,16.11,25.77,16.13,25.71,16.27Z" transform="translate(-0.03 0.03)"/><path d="M4.63,9.36c.08-.66-.13-.87-.87-1a5.07,5.07,0,0,1-3-1.51A2.29,2.29,0,0,1,0,5.25,8.87,8.87,0,0,1,.3,2.45C.7,1.18,1.78.71,2.88.25a4.84,4.84,0,0,1,2-.26C6.16,0,7.44.06,8.72,0A4.81,4.81,0,0,1,12,1.21c0,.39-.26.22-.46.18a11.24,11.24,0,0,0-4.7-1A14,14,0,0,0,3,.92,2.53,2.53,0,0,0,1,3.64,6,6,0,0,1,1,4.91a1.28,1.28,0,0,0,.42,1.15A4.68,4.68,0,0,0,5.64,7.38a10.17,10.17,0,0,1-.66,2,.18.18,0,0,1-.35,0Z" transform="translate(-0.03 0.03)"/><path d="M17.59,21.92l.26-.13a24.56,24.56,0,0,1-1.14,3.27.59.59,0,0,1-1,.25c-.67-.51-1.34-1-2-1.6a15.09,15.09,0,0,0-4.84-2.82,2.58,2.58,0,0,0-.67-.07c-.08-.07-.22-.11-.13-.26a9.7,9.7,0,0,1,6.51,2.24l1.18,1c.22.18.44.51.73.34a1,1,0,0,0,.45-.78A3,3,0,0,1,17.59,21.92Z" transform="translate(-0.03 0.03)"/><path d="M4.63,9.36H4.9c-.14,1-.21,2-.31,3-.15,1.46-.27,2.93-.44,4.39S3.76,19.61,3.57,21a.34.34,0,0,1-.4.36.45.45,0,0,1-.42-.47v0c0-.44.21-.88.22-1.31,0-1.81.42-3.58.59-5.37a42.18,42.18,0,0,1,.8-4.28A2.29,2.29,0,0,1,4.63,9.36Z" transform="translate(-0.03 0.03)"/><path d="M10.54,8.71a11.77,11.77,0,0,1-2.6-1.08,3.25,3.25,0,0,1,2.75,1C10.71,8.69,10.71,8.78,10.54,8.71Z" transform="translate(-0.03 0.03)"/><path d="M21.77,5.61a6.23,6.23,0,0,1-1.13-1c-.08-.07-.21-.13-.1-.26a.18.18,0,0,1,.25,0l0,0c.32.36.78.6,1,1.1a.1.1,0,0,1,0,.14Z" transform="translate(-0.03 0.03)"/><path d="M11.48,1.45c.17,0,.36,0,.46-.18l.93.58a.2.2,0,0,1,.07.17A2.69,2.69,0,0,1,11.48,1.45Z" transform="translate(-0.03 0.03)"/><path d="M12.94,2l-.07-.17c.36,0,.58.26.92.37C13.35,2.6,13.18,2.16,12.94,2Z" transform="translate(-0.03 0.03)"/><path d="M14.22,10.29l.13.29a3.07,3.07,0,0,1-1-.46.58.58,0,0,1,.82.09Z" transform="translate(-0.03 0.03)"/><path d="M21.77,5.61V5.45l.8,1c0,.13,0,.17-.13.13C22.26,6.19,21.84,6,21.77,5.61Z" transform="translate(-0.03 0.03)"/><path d="M19.58,3.71l-.78-.44s-.06-.05,0-.08h0a1.62,1.62,0,0,1,.93.44C19.71,3.69,19.71,3.77,19.58,3.71Z" transform="translate(-0.03 0.03)"/><path d="M19.58,3.71l.13-.13.74.54C19.93,4.27,19.81,3.89,19.58,3.71Z" transform="translate(-0.03 0.03)"/><path d="M26.09,14.77c0,.27.09.56-.11.81-.09,0-.1-.1-.15-.14v-.67a.16.16,0,0,1,.22,0Z" transform="translate(-0.03 0.03)"/><path d="M25.82,15.45l.15.14a1.47,1.47,0,0,1-.28.69l-.12-.14Z" transform="translate(-0.03 0.03)"/><path d="M10.54,8.71l.16-.13a.79.79,0,0,1,.48.33C10.85,9.1,10.71,8.84,10.54,8.71Z" transform="translate(-0.03 0.03)"/><path d="M22.45,6.52l.13-.13c.16.09.3.2.23.43C22.59,6.85,22.54,6.66,22.45,6.52Z" transform="translate(-0.03 0.03)"/><path d="M17.9,2.62c.13,0,.24,0,.25.17s-.09.08-.14.08-.23,0-.23-.15S17.87,2.66,17.9,2.62Z" transform="translate(-0.03 0.03)"/><path d="M26.09,14.77h-.26c0-.13-.07-.35.16-.33S26.08,14.65,26.09,14.77Z" transform="translate(-0.03 0.03)"/><path d="M8.14,20.57l.13.26c-.26.06-.43-.14-.72-.18A.74.74,0,0,1,8.14,20.57Z" transform="translate(-0.03 0.03)"/><path d="M18.81,3.14a.75.75,0,0,0,0,.12A.35.35,0,0,1,18.46,3c0-.17,0-.08.06-.09S18.71,3,18.81,3.14Z" transform="translate(-0.03 0.03)"/></svg>