<svg id="jornada_coaching" data-name="jornada coaching" xmlns="http://www.w3.org/2000/svg" viewBox="0 0 691.62 158.04">
  <title>title</title>
  <g id="original_copy" data-name="original copy">
    <g>
      <path d="M181.32,261.16q-11.5-11.16-11.49-28.33t11.49-28.32q11.49-11.16,28.1-11.17a39.68,39.68,0,0,1,22.88,6.82,35.56,35.56,0,0,1,14,18.92H223.83q-4.4-8.47-14.08-8.47t-15.23,6Q189,222.72,189,232.84T194.52,249q5.55,6.05,15.23,6.05t14.08-8.47h22.44a35.55,35.55,0,0,1-14,18.92,39.66,39.66,0,0,1-22.88,6.82Q192.81,272.33,181.32,261.16Z" transform="translate(-104.97 -184.23)" style="fill: #00e5ff"/>
      <path d="M406.43,271.67l-4.29-13H374.42l-4.29,13h-20l26.84-77.44h22.88l26.73,77.44Zm-27.28-27.28h18.26l-9.13-27.5Z" transform="translate(-104.97 -184.23)" style="fill: #00e5ff"/>
      <path d="M442.78,261.16q-11.5-11.16-11.49-28.33t11.49-28.32q11.49-11.16,28.1-11.17a39.68,39.68,0,0,1,22.88,6.82,35.56,35.56,0,0,1,14,18.92H485.29q-4.4-8.47-14.08-8.47t-15.23,6q-5.56,6.05-5.56,16.17T456,249q5.55,6.05,15.23,6.05t14.08-8.47h22.44a35.55,35.55,0,0,1-14,18.92,39.67,39.67,0,0,1-22.88,6.82Q454.27,272.33,442.78,261.16Z" transform="translate(-104.97 -184.23)" style="fill: #00e5ff"/>
      <path d="M568.46,194.45h18.81v77.22H568.46v-32H538.64v32H519.83V194.45h18.81v30.91h29.81Z" transform="translate(-104.97 -184.23)" style="fill: #00e5ff"/>
      <path d="M603.76,271.67V194.45h18.81v77.22Z" transform="translate(-104.97 -184.23)" style="fill: #00e5ff"/>
      <path d="M689.34,194.23h18.81v77.44H689.34l-31.46-48.73v48.73H639.07V194.23h18.81L689.34,243Z" transform="translate(-104.97 -184.23)" style="fill: #00e5ff"/>
      <path d="M731.64,261.16q-11.5-11.16-11.5-28.33t11.5-28.32q11.49-11.16,28.1-11.17a39.68,39.68,0,0,1,22.88,6.82,35.56,35.56,0,0,1,14,18.92H774.15q-4.4-8.47-14.08-8.47t-15.24,6q-5.55,6.05-5.55,16.17T744.84,249q5.55,6.05,14.91,6.05,6.71,0,10.95-3.35a16.18,16.18,0,0,0,5.67-9H754.57v-14.3h42v14.3Q794.5,253.3,785,262.43a34.78,34.78,0,0,1-11.17,7.15,36.64,36.64,0,0,1-14.13,2.75Q743.13,272.33,731.64,261.16Z" transform="translate(-104.97 -184.23)" style="fill: #00e5ff"/>
      <path d="M203,341.67H188.27V322.23l-20.9-40.94h16.68l11.61,27.26,11.52-27.26h16.68L203,322.23Z" transform="translate(-104.97 -184.23)" style="fill: #00e5ff"/>
      <path d="M257.41,281.3h14.71v49.19h18.32v11.18h-33Z" transform="translate(-104.97 -184.23)" style="fill: #00e5ff"/>
      <path d="M298.6,341.67V281.3h14.71v60.37Z" transform="translate(-104.97 -184.23)" style="fill: #00e5ff"/>
      <path d="M347.45,281.3q14.45,0,23.74,8.39t9.29,21.76q0,13.37-9.29,21.8t-23.74,8.43H326.21V281.3Zm-6.54,49.19h6.54q8.43,0,13.24-5.16t4.82-13.85q0-8.69-4.82-13.85t-13.24-5.16h-6.54Z" transform="translate(-104.97 -184.23)" style="fill: #00e5ff"/>
      <path d="M426.31,281.13v11.18H404.47v13h19.26v11.18H404.47v14h21.84v11.18H389.76V281.13Z" transform="translate(-104.97 -184.23)" style="fill: #00e5ff"/>
      <path d="M453.66,318.19v23.48H439V281.3h23.82q10.49,0,16.34,5.42A17.18,17.18,0,0,1,485,299.79,18.81,18.81,0,0,1,481.78,310q-3.18,5-10.41,7.05l14.79,24.6H469l-13.59-23.48Zm0-25.71V307h9.12a6.74,6.74,0,0,0,7.22-7.18,7.33,7.33,0,0,0-2-5.29,6.93,6.93,0,0,0-5.25-2.06Z" transform="translate(-104.97 -184.23)" style="fill: #00e5ff"/>
      <path d="M534.76,341.67l-3.35-10.15H509.73l-3.35,10.15H490.73l21-60.54H529.6l20.9,60.54Zm-21.33-21.33h14.28l-7.14-21.5Z" transform="translate(-104.97 -184.23)" style="fill: #00e5ff"/>
      <path d="M598.23,281.3v11.18l-25.71,38h25.71v11.18H555.57V330.49l25.71-38H555.57V281.3Z" transform="translate(-104.97 -184.23)" style="fill: #00e5ff"/>
      <path d="M614.44,333.46q-9-8.73-9-22.15t9-22.15a30.35,30.35,0,0,1,22-8.73,31,31,0,0,1,17.89,5.33,27.81,27.81,0,0,1,10.92,14.79H647.68a11.55,11.55,0,0,0-11-6.62q-7.57,0-11.91,4.73t-4.34,12.64q0,7.91,4.34,12.64t11.65,4.73a13.36,13.36,0,0,0,8.56-2.62,12.65,12.65,0,0,0,4.43-7h-17V307.87h32.85v11.18q-1.63,8.26-9,15.39a27.19,27.19,0,0,1-8.73,5.59,28.64,28.64,0,0,1-11.05,2.15A30.34,30.34,0,0,1,614.44,333.46Z" transform="translate(-104.97 -184.23)" style="fill: #00e5ff"/>
      <path d="M680.14,333.5q-9-8.77-9-22.19t9-22.15a32,32,0,0,1,43.95,0q8.9,8.73,8.9,22.15T724,333.5a31.85,31.85,0,0,1-43.9,0ZM713.68,324q4.34-4.73,4.34-12.64t-4.34-12.64q-4.34-4.73-11.61-4.73t-11.61,4.73q-4.34,4.73-4.34,12.64T690.46,324q4.34,4.73,11.61,4.73T713.68,324Z" transform="translate(-104.97 -184.23)" style="fill: #00e5ff"/>
    </g>
    <g>
      <path d="M151.63,333.36H137.29v-5.13h14.34a6.63,6.63,0,0,1,5.1,2,7.82,7.82,0,0,1,0,10,6.64,6.64,0,0,1-5.12,1.95v-5.1a2.7,2.7,0,0,0,1.77-.54,1.69,1.69,0,0,0,.57-1.32,1.73,1.73,0,0,0-.57-1.33A2.55,2.55,0,0,0,151.63,333.36Z" transform="translate(-104.97 -184.23)" style="fill: #00e5ff"/>
      <path d="M155.5,321.08a11.1,11.1,0,0,1-15.46,0,11.17,11.17,0,0,1,0-15.33,11.16,11.16,0,0,1,15.46,0,11.11,11.11,0,0,1,0,15.32Zm-3.33-11.7a7.18,7.18,0,0,0-8.82,0,5.8,5.8,0,0,0,0,8.1,7.18,7.18,0,0,0,8.82,0,5.79,5.79,0,0,0,0-8.1Z" transform="translate(-104.97 -184.23)" style="fill: #00e5ff"/>
      <path d="M150.16,294.21h8.19v5.13H137.29V291a8.07,8.07,0,0,1,1.89-5.7,6,6,0,0,1,4.56-2,6.56,6.56,0,0,1,3.57,1.11,6.06,6.06,0,0,1,2.46,3.63l8.58-5.16v6l-8.19,4.74Zm-9,0h5.07V291a2.35,2.35,0,0,0-2.51-2.52,2.56,2.56,0,0,0-1.84.69,2.42,2.42,0,0,0-.72,1.83Z" transform="translate(-104.97 -184.23)" style="fill: #00e5ff"/>
      <path d="M137.23,265.59v-5.13h21.12v5.13l-13.29,8.58h13.29v5.13H137.23v-5.13l13.29-8.58Z" transform="translate(-104.97 -184.23)" style="fill: #00e5ff"/>
      <path d="M158.35,242.58l-3.54,1.17v7.56l3.54,1.17v5.46l-21.12-7.32v-6.24l21.12-7.29ZM150.91,250v-5l-7.5,2.49Z" transform="translate(-104.97 -184.23)" style="fill: #00e5ff"/>
      <path d="M137.29,227.17a11.88,11.88,0,0,1,2.93-8.28,10.53,10.53,0,0,1,15.19,0,11.85,11.85,0,0,1,2.94,8.28v7.41H137.29Zm17.16,2.28v-2.28a6,6,0,0,0-1.8-4.62,7.78,7.78,0,0,0-9.66,0,6,6,0,0,0-1.8,4.62v2.28Z" transform="translate(-104.97 -184.23)" style="fill: #00e5ff"/>
      <path d="M158.35,199l-3.54,1.17v7.56l3.54,1.17v5.46l-21.12-7.32v-6.24l21.12-7.29Zm-7.44,7.44v-5l-7.5,2.49Z" transform="translate(-104.97 -184.23)" style="fill: #00e5ff"/>
    </g>
    <g>
      <path d="M130.53,337.36H110.7v4.36H105V331h25.56Z" transform="translate(-104.97 -184.23)" style="fill: #00e5ff"/>
      <path d="M110.44,320.51h3.74q-4-2.16-4-5.76h6.26v1.51a4.47,4.47,0,0,0,1,3.19,4.75,4.75,0,0,0,3.53,1.06h9.5v6.16H110.44Z" transform="translate(-104.97 -184.23)" style="fill: #00e5ff"/>
      <path d="M127.9,312a11.58,11.58,0,0,1-14.78,0,8.49,8.49,0,0,1-2.9-6.5,6.82,6.82,0,0,1,2.84-5.89h-2.63v-6.16h20.09v6.16h-2.92a7,7,0,0,1,3.17,6A8.42,8.42,0,0,1,127.9,312ZM124.16,301a4.89,4.89,0,0,0-3.67-1.33,4.83,4.83,0,0,0-3.65,1.33,4.28,4.28,0,0,0,0,6.12,4.89,4.89,0,0,0,3.67,1.33,4.83,4.83,0,0,0,3.65-1.33,4.28,4.28,0,0,0,0-6.12Z" transform="translate(-104.97 -184.23)" style="fill: #00e5ff"/>
    </g>
    <g>
      <line x1="16.03" y1="99.77" x2="16.03" y2="6.77" style="fill: none;stroke: #00e5ff;stroke-miterlimit: 10;stroke-width: 8px"/>
      <line x1="16.03" y1="99.77" x2="16.03" y2="6.77" style="fill: #fff"/>
    </g>
  </g>
  <g id="net_round" data-name="net round">
    <g id="net">
      <g>
        <path d="M316.07,185.24a10.83,10.83,0,0,1,1,1.1,3.61,3.61,0,0,1,.39,3.44l-.4.73-.39.58c-.26,0-.36.24-.51.39l-.22.08L315,192l-.23.11c-.21,0-.42-.12-.62,0a.32.32,0,0,0-.16,0l-.69-.11-.24,0-.52-.2c-.29-.28-.74-.31-1-.64l-.48-.62a4,4,0,0,1-.62-1.65l0-.7a4,4,0,0,1,3.44-3.47Z" transform="translate(-104.97 -184.23)" style="fill: #fff;stroke: #fff;stroke-miterlimit: 10;stroke-width: 0.800000011920929px"/>
        <path d="M285.92,190.11a3.91,3.91,0,0,1,.37-4,3.63,3.63,0,0,1,6.36,1.22c.06.21.11.42.17.63a.76.76,0,0,0,0,.65,7.29,7.29,0,0,1-1.06,2.39c-.25,0-.34.1-.33.33-.51,0-.89.4-1.35.55l-.55.14a1.75,1.75,0,0,0-1,0l-.56-.13-.14-.11-1.27-.77c-.08-.21-.2-.38-.45-.4A.37.37,0,0,0,285.92,190.11Z" transform="translate(-104.97 -184.23)" style="fill: #fff;stroke: #fff;stroke-miterlimit: 10;stroke-width: 0.800000011920929px"/>
        <path d="M260.14,226.09c-2.34-.29-3.75-1.95-3.48-4.11a3.52,3.52,0,0,1,4.49-3.07l.76.23c.08.22.28.21.46.25l.53.51.51.64c.08.2.07.45.32.56a6.44,6.44,0,0,1,.06,2.16l-.21.63a4.23,4.23,0,0,1-1.68,1.75c-.42.26-1,.15-1.32.51A.52.52,0,0,0,260.14,226.09Z" transform="translate(-104.97 -184.23)" style="fill: #fff;stroke: #fff;stroke-miterlimit: 10;stroke-width: 0.800000011920929px"/>
        <path d="M266.63,205.39a3.69,3.69,0,0,1-2-3.4,3.42,3.42,0,0,1,2-3.15,3.5,3.5,0,0,1,3.82.4c.24.18.46.38.68.57l.36.62a4.71,4.71,0,0,1,.35,2.08l-.11.68c-1.07,2.17-2.32,2.84-4.51,2.41Z" transform="translate(-104.97 -184.23)" style="fill: #fff;stroke: #fff;stroke-miterlimit: 10;stroke-width: 0.800000011920929px"/>
        <path d="M320.9,265.75a4,4,0,0,1,.37,4,3.6,3.6,0,0,1-6.68-.53c-.07-.23-.12-.47-.18-.71v-.8a7.19,7.19,0,0,1,.79-2,.7.7,0,0,0,.42-.53l2.1-.82a.8.8,0,0,0,.59,0c.89,0,1.52.6,2.28.91A.42.42,0,0,0,320.9,265.75Z" transform="translate(-104.97 -184.23)" style="fill: #fff;stroke: #fff;stroke-miterlimit: 10;stroke-width: 0.800000011920929px"/>
        <path d="M343.65,223.56a3.7,3.7,0,0,1,4.43,2.19,3.65,3.65,0,0,1-3.94,4.92l-.68-.17a8.78,8.78,0,0,1-1.59-.92,1.1,1.1,0,0,0-.32-.63l-.53-1.19c0-.17.07-.35-.1-.47a6.69,6.69,0,0,1,1.22-3c.19,0,.31,0,.33-.25a.3.3,0,0,0,.42-.23A1,1,0,0,0,343.65,223.56Z" transform="translate(-104.97 -184.23)" style="fill: #fff;stroke: #fff;stroke-miterlimit: 10;stroke-width: 0.800000011920929px"/>
        <path d="M262.63,244.61a6.51,6.51,0,0,1-2.55.12,3.57,3.57,0,0,1-2.75-3.45,3.62,3.62,0,0,1,2.7-3.58l.39-.11.7,0,1.21.31.59.2c0,.19.19.21.33.26l.61.68a3.75,3.75,0,0,1,.4,3.81c-.27.61-.83,1-1.17,1.51A.47.47,0,0,0,262.63,244.61Z" transform="translate(-104.97 -184.23)" style="fill: #fff;stroke: #fff;stroke-miterlimit: 10;stroke-width: 0.800000011920929px"/>
        <path d="M288.3,268a3.62,3.62,0,0,1-4.21,2.36,3.67,3.67,0,0,1-2.86-3.49,12.78,12.78,0,0,1,.25-1.44l.24-.63,1.58-1.46c.18.08.3.05.33-.16.47.22.91-.09,1.37-.07l1.15.23a.68.68,0,0,0,.69.36l.58.51a3,3,0,0,1,.82,1.15c.06.2.09.41.31.5-.21.43.07.88,0,1.32Z" transform="translate(-104.97 -184.23)" style="fill: #fff;stroke: #fff;stroke-miterlimit: 10;stroke-width: 0.800000011920929px"/>
        <path d="M341.1,243.79a3.29,3.29,0,0,1,2.4,3.06,3.46,3.46,0,0,1-1.6,3.34,3.63,3.63,0,0,1-3.92,0l-.5-.27a.87.87,0,0,0-.47-.47,2,2,0,0,0-.52-.83.41.41,0,0,0-.24-.52,6.45,6.45,0,0,1,.63-3c.41-.2.61-.62.92-.92l.23-.11c.26-.06.51-.14.58-.45.61.22,1.22-.2,1.83,0A1.18,1.18,0,0,0,341.1,243.79Z" transform="translate(-104.97 -184.23)" style="fill: #fff;stroke: #fff;stroke-miterlimit: 10;stroke-width: 0.800000011920929px"/>
        <path d="M271.56,257.45a4.7,4.7,0,0,1-3.11.53,3.57,3.57,0,0,1-2.14-5.47c.17-.27.47-.47.49-.82.28.07.44-.07.53-.32a4.41,4.41,0,0,1,3.39-.21l.51.21a4.27,4.27,0,0,1,1.72,2.8c0,.21-.16.42,0,.61a8.71,8.71,0,0,1-1,2.42C271.71,257.11,271.64,257.29,271.56,257.45Z" transform="translate(-104.97 -184.23)" style="fill: #fff;stroke: #fff;stroke-miterlimit: 10;stroke-width: 0.800000011920929px"/>
        <path d="M327.8,195.35a3.66,3.66,0,0,1,6.38.79,3.77,3.77,0,0,1-1.38,4.3l-.72.43a5.34,5.34,0,0,1-2.34,0l-.51-.13a1.49,1.49,0,0,0-.7-.45l-.51-.57-.72-1.11a.36.36,0,0,0-.17-.46l.33-2.26A.87.87,0,0,0,327.8,195.35Z" transform="translate(-104.97 -184.23)" style="fill: #fff;stroke: #fff;stroke-miterlimit: 10;stroke-width: 0.800000011920929px"/>
        <path d="M288.3,268l.21-.82a2.92,2.92,0,0,0,.55.12l6.56.14,12.47.22,6.31.1v.8a29.74,29.74,0,0,0-5.33-.22c-5-.13-10.09-.2-15.13-.28C292.07,268,290.18,267.86,288.3,268Z" transform="translate(-104.97 -184.23)" style="fill: #fff;stroke: #fff;stroke-miterlimit: 10;stroke-width: 0.800000011920929px"/>
        <path d="M332.08,200.87l.72-.43a6.72,6.72,0,0,0,1,2.68q4.23,9.13,8.53,18.23c.36.76.52,1.67,1.28,2.21a1,1,0,0,1-.75.2,13.21,13.21,0,0,1-1.16-2.2q-3-6.26-5.88-12.54C334.59,206.31,333.34,203.59,332.08,200.87Z" transform="translate(-104.97 -184.23)" style="fill: #fff;stroke: #fff;stroke-miterlimit: 10;stroke-width: 0.800000011920929px"/>
        <path d="M337,249.48a.87.87,0,0,1,.47.47l-9.29,8.92-6.92,6.6a3.59,3.59,0,0,1-.38.28.42.42,0,0,1-.33-.37,2.18,2.18,0,0,1,.27-.4l8.1-7.75Z" transform="translate(-104.97 -184.23)" style="fill: #fff;stroke: #fff;stroke-miterlimit: 10;stroke-width: 0.800000011920929px"/>
        <path d="M292.86,188.56a.76.76,0,0,1,0-.65c2.46,0,4.92.08,7.38.11l9.5.06c.24,0,.48,0,.73.07l0,.7a5.49,5.49,0,0,0-.72-.1l-11-.09C296.75,188.63,294.8,188.59,292.86,188.56Z" transform="translate(-104.97 -184.23)" style="fill: #fff;stroke: #fff;stroke-miterlimit: 10;stroke-width: 0.800000011920929px"/>
        <path d="M271.58,200.43l-.36-.62,11.29-7.51a34.16,34.16,0,0,1,3.41-2.2.37.37,0,0,1,.21.42,4.81,4.81,0,0,1-1.54,1.13q-3.7,2.47-7.39,5C275.33,197.88,273.36,199,271.58,200.43Z" transform="translate(-104.97 -184.23)" style="fill: #fff;stroke: #fff;stroke-miterlimit: 10;stroke-width: 0.800000011920929px"/>
        <path d="M266.63,205.39l.68.22c-.17.37-.34.73-.49,1.11q-1.16,2.89-2.31,5.79c-.87,2.21-1.73,4.43-2.59,6.64l-.76-.23a18.1,18.1,0,0,0,1.52-3.46C264,212.12,265.32,208.75,266.63,205.39Z" transform="translate(-104.97 -184.23)" style="fill: #fff;stroke: #fff;stroke-miterlimit: 10;stroke-width: 0.800000011920929px"/>
        <path d="M341.1,243.79a1.18,1.18,0,0,1-.66-.18c.46-1.95,1-3.88,1.37-5.84a73.21,73.21,0,0,0,1.65-7.27l.68.17c-.35,2.2-1,4.32-1.53,6.48S341.63,241.58,341.1,243.79Z" transform="translate(-104.97 -184.23)" style="fill: #fff;stroke: #fff;stroke-miterlimit: 10;stroke-width: 0.800000011920929px"/>
        <path d="M271.56,257.45c.08-.16.14-.34.39-.26a7.43,7.43,0,0,1,.75.46l9,7.12-.24.63L272,258A4.35,4.35,0,0,1,271.56,257.45Z" transform="translate(-104.97 -184.23)" style="fill: #fff;stroke: #fff;stroke-miterlimit: 10;stroke-width: 0.800000011920929px"/>
        <path d="M327.8,195.35a.87.87,0,0,1-.35.56c-2.33-1.23-4.66-2.47-7-3.69a20.16,20.16,0,0,0-3.38-1.7l.4-.73c1.65.91,3.3,1.84,5,2.74S325.94,194.54,327.8,195.35Z" transform="translate(-104.97 -184.23)" style="fill: #fff;stroke: #fff;stroke-miterlimit: 10;stroke-width: 0.800000011920929px"/>
        <path d="M261.12,237.55l-.7,0c-.06-2.05-.17-4.11-.17-6.16a49.12,49.12,0,0,1-.11-5.35.52.52,0,0,1,.43.08c0,.07.12.13.12.2Q260.91,232,261.12,237.55Z" transform="translate(-104.97 -184.23)" style="fill: #fff;stroke: #fff;stroke-miterlimit: 10;stroke-width: 0.800000011920929px"/>
        <path d="M267.33,251.37c-.09.25-.24.39-.53.32a11.37,11.37,0,0,1-1.63-2.57c-.84-1.5-1.82-2.93-2.54-4.5a.47.47,0,0,1,.45-.29c.88,1.36,1.69,2.76,2.47,4.18A14.23,14.23,0,0,0,267.33,251.37Z" transform="translate(-104.97 -184.23)" style="fill: #fff;stroke: #fff;stroke-miterlimit: 10;stroke-width: 0.800000011920929px"/>
        <path d="M328,199.74l.51.57-1.27,1.47c-1.21,1.37-1.2,1.36,0,2.71.32.38.45.35.62-.11.45-1.21.93-2.41,1.4-3.62l.51.13a29.66,29.66,0,0,1-1.49,4,.91.91,0,0,0,.15,1.09c1.19,1.44,2.34,2.91,3.5,4.37,2.79,3.52,5.59,7,8.35,10.57a14.88,14.88,0,0,1,2.23,3c0,.21-.13.28-.33.25a3.3,3.3,0,0,1-.42-.38l-6.51-8.21-6.8-8.61c-.16-.21-.31-.51-.62-.48s-.29.42-.38.65c-.66,1.69-1.3,3.38-2,5.07a1.57,1.57,0,0,0,0,1.32c.73,1.57,1.4,3.17,2.1,4.76,1.34,3,2.7,6.09,4,9.15.21.49.42.69,1,.6,1.49-.23,3-.37,4.51-.5a20.38,20.38,0,0,1,3.78-.31c.18.13.14.3.1.47-2.71.32-5.43.66-8.14,1-.52.06-.68.15-.44.68.7,1.53,1.37,3.07,2,4.61.17.41.31.48.68.17,1.26-1,2.56-2,3.82-3a14.45,14.45,0,0,0,2.59-2.19,1.1,1.1,0,0,1,.32.63,3.14,3.14,0,0,1-.95.87q-2.76,2.21-5.53,4.4c-.26.2-.41.36-.23.73.52,1.1,1,2.21,1.47,3.34.63,1.58,1.5,3.06,2,4.7-.07.31-.31.39-.58.45a.51.51,0,0,0,0-.16c-1-2.7-2.3-5.25-3.38-7.91-.11-.26-.29-.39-.57-.17-.59.48-1.18,1-1.77,1.42-.28.22-.18.42,0,.62l5.5,6.3c-.31.3-.5.72-.92.92a2.65,2.65,0,0,1-.86-.59c-1.94-1.55-3.89-3.1-5.82-4.67-.39-.32-.7-.42-1.14-.07q-5,4-10.06,8c-.23.18-.48.35-.47.71q0,2.23,0,4.46c0,.38.07.55.52.41q7.55-2.35,15.12-4.66a4.49,4.49,0,0,1,2.09-.5.42.42,0,0,1,.24.52,16.47,16.47,0,0,0-2.49.72l-14.92,4.57a.72.72,0,0,0-.6.8q0,2.44-.06,4.87a36.35,36.35,0,0,1-.14,4.86.8.8,0,0,1-.59,0q.08-4.79.17-9.57c0-.5-.2-.49-.59-.36-1.47.48-2.93,1-4.42,1.38a13.27,13.27,0,0,1-3,.79l-.09-.59,6.83-2.05c1.21-.36,1.21-.36,1.22-1.59,0-.32,0-.65,0-1,0-.91,0-1.83,0-2.86-1.4,1.1-2.66,2.11-3.95,3.1-1.47,1.13-2.84,2.39-4.43,3.38a.38.38,0,0,1-.36-.37,3.57,3.57,0,0,1,.29-.28c2.65-2.1,5.3-4.21,8-6.29a1.19,1.19,0,0,0,.52-1q.05-6.7.12-13.4a.86.86,0,0,1,.69,0l-.21,13.59.56-.47c2.83-2.23,5.66-4.45,8.48-6.69,1.45-1.15,1.44-1.19,0-2.35-2.17-1.74-4.37-3.46-6.55-5.19l.47-.54,7.21,5.78c.93.74.92.71,1.84,0,.39-.32.4-.52.07-.9-1.59-1.81-3.23-3.58-4.68-5.49-1-1.32-2.08-2-3.73-1.49h-.08a.8.8,0,0,1-.08-.55c.53-.26,1.17,0,1.74-.37-.76-.88-1.49-1.75-2.24-2.6-.28-.32-.5-.92-.89-.85s-.44.73-.63,1.14l-.58-.18c.16-.43.33-.85.48-1.29.08-.22.22-.46,0-.69a9.71,9.71,0,0,0-1.81-1.94.74.74,0,0,0-.06-.1c-.11,0-.05.09,0,.14-.13,1.26.31,2.48.26,3.73l-.61.09c-.16-1.56-.31-3.12-.46-4.69a1.42,1.42,0,0,0-.35-.8c-1-1.21-2.09-2.42-3.12-3.64-.29-.34-.54-.38-.85,0a20.86,20.86,0,0,0-2,2.16,5.62,5.62,0,0,0-.51,3.13c0,.06.09.13.15.18,1.79,1.49,3.46,3.12,5.32,4.52a.76.76,0,0,1-.44.54l-4.54-3.92c-.18-.15-.34-.45-.59-.34s-.19.44-.21.67c-.26,2.22-.49,4.45-.77,6.67-.07.53.07.59.55.49,1.61-.33,3.24-.61,4.85-.92a.87.87,0,0,1,.15.64c-1.81.18-3.55.72-5.34,1-.46.07-.44.44-.47.74-.29,2.48-.56,5-.85,7.46.31,0,.42-.23.57-.4,1.55-1.66,3.14-3.29,4.63-5a9.87,9.87,0,0,0,2.11-2.52,1.46,1.46,0,0,1,.71.64c-.22,0-.33.16-.46.3-2.41,2.6-4.81,5.22-7.25,7.8a2.36,2.36,0,0,0-.61,1.45l-1.26,10.7-.59-.07,1.25-10.77c-1.36,1.47-2.46,2.85-3.76,4a2.19,2.19,0,0,0-.58,3.07c.7,1.3.95,2.81,1.76,4.07a.87.87,0,0,1-.66.27c-.1-.22-.22-.43-.31-.65q-.83-2.11-1.65-4.22c-.17-.43-.33-.59-.72-.15-.81.9-1.66,1.77-2.5,2.65-.22.23-.34.42,0,.63l4.37,2.6a.81.81,0,0,1-.35.54l-4.16-2.48c-.28-.17-.56-.44-.87-.13-1,1-1.89,2-3,3.15l7.68.51a1.06,1.06,0,0,1-.07.66c-2.39-.17-4.79-.29-7.18-.54a1.9,1.9,0,0,0-1.78.82c-1.27,1.41-2.6,2.76-3.85,4.19a12.4,12.4,0,0,0-2.35,2.76l-.58-.51,6.73-7.34c-1.55-.13-2.89-.23-4.22-.38-.42,0-.51.18-.61.47l-2.58,6.89-1.15-.23a5.33,5.33,0,0,1,0-.65q.4-3,.82-5.92c.07-.47,0-.8-.59-.82-1,0-2-.15-3-.24-.48,0-.63.09-.48.59.35,1.13.69,2.28,1,3.43a17.35,17.35,0,0,1,.86,3.67c0,.22-.16.24-.33.16s-.23-.35-.29-.55c-.63-2.24-1.28-4.48-1.88-6.73-.11-.42-.27-.69-.73-.71l-2.34-.16-5.08-.39c-.2-.19-.06-.41,0-.61l7.79.56c-.74-2.66-1.45-5.21-2.15-7.76a40,40,0,0,1-1.14-4.38.61.61,0,0,1,.54-.19q1.66,5.94,3.31,11.88c.09.33.21.52.58.55,1.19.08,2.37.18,3.55.26.39,0,.58-.08.63-.58.3-2.65.64-5.31,1-7.95a1.06,1.06,0,0,0-.61-1.28c-2.3-1.35-4.57-2.76-6.86-4.14l.31-.58,7.29,4.44a3.79,3.79,0,0,0,.18-.56q.33-2.44.64-4.89c.1-.8.2-1.61.29-2.41,0-.27.09-.55-.39-.43-1.15.29-2.32.54-3.48.8a33.42,33.42,0,0,1-4.11.84.54.54,0,0,1-.21-.52c2.14-.48,4.26-1.06,6.42-1.41,1.52-.25,2.39-.83,2.21-2.47a.59.59,0,0,1,0-.16c.27-1.53.27-1.53-1.21-2.06l-.22-.1-5.05-1.7c-.27-.09-.59-.23-.78.15-.94,1.94-2,3.82-2.87,5.81l-.59-.34c.89-1.75,1.77-3.51,2.68-5.25.45-.87-.31-.91-.74-1.14s-.67.14-.77.56c-.47,1.92-1,3.83-1.44,5.74l-.52-.12c.48-2,1.07-3.91,1.38-5.92,0-.3.17-.57-.26-.7a15.74,15.74,0,0,1-2.14-.72,2.31,2.31,0,0,0-3.18.75c-2.81,3.24-5.84,6.3-8.78,9.43a1.3,1.3,0,0,0-.46.83l-.61-.68,4.33-4.62,5.51-5.84c.28-.3.75-.67,0-.94-1-.36-2.06-.65-3.08-1-.43-.15-.59.1-.75.4q-2.15,4-4.31,8.08a41.65,41.65,0,0,1-2,3.66l-.59-.2a28,28,0,0,0,1.63-3q2.36-4.4,4.72-8.8c.22-.4.19-.61-.3-.75-1.61-.45-3.21-.95-4.82-1.43l.21-.63c1.57.49,3.16.94,4.72,1.47.69.24.95,0,1.23-.59.9-1.75,1.87-3.47,2.78-5.22a9.18,9.18,0,0,0,1-2.26l-3.89,1.76-5.9,2.67c-.25-.11-.23-.36-.32-.56,3.1-1.41,6.18-2.88,9.31-4.21a4.3,4.3,0,0,0,2.39-2.34c.31-.69.69-1.35,1-2l3.71-6.93c-1-.26-2-.47-2.91-.76a1.1,1.1,0,0,0-1.34.42c-3.68,4.37-7.39,8.72-11.08,13.1a9.89,9.89,0,0,0-1.65,2.1l-.53-.51c1.62-1.93,3.24-3.86,4.87-5.78,2.68-3.16,5.37-6.3,8.11-9.51l-3.52-.9.11-.68,3.54.92a.54.54,0,0,0,.63-.21c2.28-2.72,4.55-5.44,6.86-8.13,1.2-1.39,2.29-2.88,3.61-4.17l1.27.77a1.69,1.69,0,0,0-.56.77c-1.13,2.09-2.26,4.19-3.38,6.29-1,1.79-1.87,3.6-2.83,5.38-.22.41-.14.62.3.61a6.79,6.79,0,0,1,2.3.47c.73.23,1.08.11,1.22-.69.16-1,.4-1.91.62-2.85.77-3.3,1.64-6.58,2.48-9.86l.56.13c-.1.48-.17,1-.29,1.43-1,3.83-2,7.64-2.83,11.51-.12.55,0,.75.53.9a23.7,23.7,0,0,1,3.16.66L289,207l-3.25-.66c-.29-.06-.61-.21-.72.23-.38,1.47-.76,3-1.18,4.6.82-.37,1.44-.69,2.09-.94a15.53,15.53,0,0,1,3.18-1.31c.22,0,.28.17.28.36a1.43,1.43,0,0,1-.62.36l-4.64,2.14c-.22.1-.45.16-.53.45q-.72,2.86-1.46,5.71a27.74,27.74,0,0,0,2.78-2.71c1.64-1.76,3.35-3.45,4.89-5.3.28,0,.4.18.48.4a2.27,2.27,0,0,1-.25.41c-2.15,2.29-4.32,4.55-6.44,6.86-.87,1-2.11,1.71-2.18,3.2A11.5,11.5,0,0,1,281,223c-.39,1.58-.81,3.15-1.21,4.73-.06.24-.24.53.14.69s.69.3,1,.44a.44.44,0,0,0,.64-.27c.4-.85.86-1.68,1.29-2.52l7.82-15.47.64.26c-.21.38-.44.74-.64,1.13q-1.82,3.58-3.63,7.17l-4.77,9.41c-.13.26-.35.55.12.7,2,.67,4.06,1.33,6.08,2,.61.21.68-.16.74-.61q.48-3.78,1-7.56L291.79,211l.65.16c-.09.61-.18,1.23-.26,1.84q-.76,5.82-1.51,11.64c-.29,2.19-.57,4.38-.87,6.57,0,.34,0,.61.36.68,1.13.18,2.11.83,3.24,1l-.17.66c-1-.34-2-.64-3-1-.5-.19-.64,0-.7.42a13.7,13.7,0,0,1-.24,2c-.25.9.2.76.76.64a10.32,10.32,0,0,1,3-.57c.19.1.19.3.24.48-1.21.27-2.42.58-3.64.8-.49.09-.61.36-.66.76-.34,2.59-.66,5.19-1,7.78a.72.72,0,0,0,.34.82l2.56,1.54c.4.24.64.17.79-.28.24-.69.51-1.36.77-2l2.77-7.26c.23,0,.33.18.47.31-1,3.19-2.35,6.27-3.49,9.41-.16.44-.12.61.25.82,1.62,1,3.25,1.92,4.84,2.93.57.37.9.35,1.35-.19a25.29,25.29,0,0,1,2.38-2.54,1.12,1.12,0,0,0,.34-1.46c-1.2-3-2.34-6-3.49-9a1.26,1.26,0,0,1,.71-.32,1.22,1.22,0,0,0,0,.4c1.11,2.88,2.23,5.75,3.34,8.63.16.4.33.35.57.09s.36-.33.53-.51c1.14-1.23,2.31-2.44,3.41-3.71.45-.52,1.08-.9,1.17-1.77.24-2.58.59-5.15.93-7.72.08-.6-.16-.63-.64-.54-2.47.48-4.94.95-7.41,1.42l-.11-.52a1.62,1.62,0,0,1,.3-.12c2.36-.47,4.73-.94,7.09-1.39.55-.1.94-.23,1-.92.1-1.29.3-2.58.46-3.87s.28-2.47.45-3.7c.09-.64-.34-.95-.76-1.23s-.6.22-.8.44q-4.29,4.62-8.55,9.25c-.17-.08-.38-.13-.37-.39a7.81,7.81,0,0,1,1.34-1.61q3.66-4,7.32-7.93c.31-.33.23-.52-.07-.78q-1.92-1.63-3.81-3.3c-.32-.28-.49-.34-.67.15-.71,2-1.47,3.89-2.18,5.84-.88,2.41-1.9,4.76-2.68,7.21l-.63-.19c.47-1.29.94-2.59,1.42-3.88q1.75-4.67,3.52-9.33a.88.88,0,0,0-.31-1.12c-1.57-1.34-3.06-2.76-4.65-4.07a11.46,11.46,0,0,0-2.79-2.19,1,1,0,0,1,.57-.48,1.27,1.27,0,0,1,.29.14c2.25,2,4.51,3.9,6.74,5.88.43.38.62.62.89-.14q1-2.86,2.2-5.66a2,2,0,0,0-.57-2.71,3.91,3.91,0,0,1-.54-.61c-1.37-1.64-1.36-1.59-3.41-1.08a32.6,32.6,0,0,1-4.87,1.17.43.43,0,0,1-.27-.53c2.1-.41,4.13-1.07,6.2-1.58.46-.11.31-.35.12-.57-.35-.41-.72-.8-1.07-1.22-1.31-1.54-1.29-1.52-2.79-.15a23.91,23.91,0,0,1-2.93,2.52c-.22,0-.31-.16-.33-.36a41.51,41.51,0,0,1,3.72-3.38c.48-.41.61-.7.13-1.24q-2.86-3.22-5.65-6.51a15.35,15.35,0,0,1-2-2.45c0-.23.08-.36.33-.33a2.28,2.28,0,0,1,.31.25c2.48,2.86,5,5.71,7.42,8.62.48.58.73.47,1.19.05,2.3-2.06,4.64-4.07,6.93-6.15a27.54,27.54,0,0,0,3.42-3.22l.48.62q-5.32,4.73-10.64,9.45c-.33.29-.32.48,0,.79.71.78,1.41,1.58,2.06,2.41a1,1,0,0,0,1.18.4c1.22-.35,2.45-.68,3.68-1a.92.92,0,0,0,.65-.65c.55-1.47,1.09-2.94,1.64-4.4.81-2.12,1.63-4.23,2.45-6.35l.52.2c-.84,2.28-1.67,4.56-2.52,6.83-.41,1.11-.87,2.21-1.29,3.32-.07.19-.26.42-.07.6s.41,0,.61-.07a11.36,11.36,0,0,1,1.33-.34c.88-.08,1.14-.54,1.19-1.38.08-1.4.32-2.79.48-4.18.18-1.58.33-3.16.5-4.73l.69.11c-.33,2.73-.68,5.45-1,8.19-.05.47-.48,1.1,0,1.4s1-.22,1.46-.29.65-.3.59-.82c-.32-2.82-.6-5.64-.9-8.46.2-.14.41-.05.62,0,.24,2.26.51,4.51.7,6.77s.16,2.25,2.36,1.66a3.35,3.35,0,0,1,.54-.16c.47,0,.52-.24.34-.64-1.07-2.39-2.13-4.79-3.18-7.19-.11-.25-.19-.52-.53-.54l.94-.42a2.19,2.19,0,0,0,.09.47c.94,2.16,1.88,4.32,2.85,6.46.7,1.52.73,1.51,2.36,1.13,1.12-.26,1.11-.25.37-1.19-1.83-2.31-3.64-4.63-5.46-6.95.16-.15.25-.38.51-.39a2.53,2.53,0,0,0,.17.28c2,2.49,3.94,5,5.89,7.47.22.28.42.25.7.18a29.15,29.15,0,0,1,3.7-.86.36.36,0,0,1,.17.46c-1.06.3-2.12.61-3.19.9-.37.1-.66.22-.33.64.53.68,1.08,1.36,1.62,2,.13.16.33.26.49.07A13.11,13.11,0,0,0,328,199.74ZM282.07,216c.22-.87.45-1.73.66-2.6.06-.26.25-.56,0-.77s-.51,0-.73.15c-2.1.94-4.19,1.89-6.27,2.88-.42.2-.95.27-1.21.75l-4.45,8.3c-.22.41-.12.61.34.76,1.05.33,2.06.8,3.14,1.08a.9.9,0,0,0,1.05-.3c1.38-1.52,2.77-3.05,4.23-4.5C280.52,220.08,282,218.41,282.07,216ZM325,214.06a6.07,6.07,0,0,0-.94,2.14c-1,2.59-2,5.2-2.95,7.8a.93.93,0,0,0,.23,1.09c1,1.08,2,2.18,2.86,3.32a1.22,1.22,0,0,0,1.29.52c1.66-.22,3.33-.43,5-.58.64-.06.76-.19.48-.82-1.47-3.28-2.89-6.58-4.33-9.88C326.07,216.48,325.53,215.31,325,214.06Zm-4.68,9.81c.12-.09.15-.1.16-.12l4-10.42a.68.68,0,0,0,0-.55q-1.06-2.42-2.11-4.83c-.2-.45-.41-.42-.7-.09q-2.13,2.35-4.28,4.68a1.18,1.18,0,0,0-.31,1c.25,2.23.46,4.47.69,6.71a1.84,1.84,0,0,0,.36,1.06C318.8,222.18,319.53,223,320.28,223.87Zm-13.62-14.78c-.92,2.37-1.79,4.61-2.64,6.87-.13.33-.46.71,0,1.1,1.4,1.2,2.79,2.41,4.19,3.62.19.17.44.33.64.09.52-.6,1.23-1.06,1.32-2,.14-1.51.33-3,.52-4.51a.89.89,0,0,0-.19-.75Zm6-6c-.38,3.15-.76,6.29-1.12,9.43-.05.47-.21,1,.16,1.4s.83.93,1.22,1.41.6.37.92,0a19.8,19.8,0,0,1,1.66-1.78,2.16,2.16,0,0,0,.7-2.1c-.3-2.64-.58-5.27-.86-7.91-.17-1.68-.16-1.67-1.83-1.25C313.07,202.44,312.66,202.55,312.66,203.11Zm-37.31,11.84c.13,0,.2,0,.24,0l7.15-3.26a.83.83,0,0,0,.46-.63c.37-1.47.73-2.95,1.14-4.41.14-.5,0-.69-.49-.78-.85-.16-1.68-.4-2.53-.55s-.95.12-1.22.66c-.89,1.7-1.82,3.38-2.72,5.07C276.68,212.35,276,213.64,275.34,214.95Zm46.31-8.1a1.18,1.18,0,0,0-.16-.75c-.69-1.56-1.39-3.11-2-4.68a.66.66,0,0,0-.95-.43,20.13,20.13,0,0,1-2,.55c-.56.11-.66.34-.6.89.34,3,.63,5.91.92,8.87,0,.18-.06.43.13.51s.35-.18.49-.33l2.64-2.86C320.61,208,321.14,207.42,321.66,206.85Zm12.44,28a3.53,3.53,0,0,0-.13-.45c-.72-1.66-1.46-3.32-2.17-5a.72.72,0,0,0-.88-.49c-1.66.21-3.33.39-5,.58-.18,0-.42,0-.5.19s.16.32.28.46c1.44,1.69,2.87,3.39,4.34,5,.51.58.92,1.66,1.56,1.63s1.3-.87,1.93-1.38C333.73,235.29,334,235.17,334.09,234.87Zm-44.47,20.5,4.26.34a.65.65,0,0,0,.55-.28c.89-1,1.77-2,2.68-2.93.35-.37.34-.58-.12-.84-1.51-.88-3-1.77-4.48-2.73-.66-.43-.91-.14-1.12.42-.68,1.82-1.35,3.64-2,5.45C289.23,255.12,289.25,255.31,289.63,255.36Zm21.23-42.43,1.21-10.22-3.13.82c-.22.06-.28.23-.35.4l-1.48,3.85c-.1.27-.23.55,0,.83Zm-34.22-9.38c1,.27,1.95.45,2.81.74.61.2.85,0,1.12-.53,1.51-2.87,3.06-5.72,4.58-8.58.64-1.21,1.26-2.42,1.89-3.63l-.15-.1Zm10.66,51.65c.36-.14,1,.44,1.31-.3.84-2.1,1.64-4.22,2.45-6.34a.45.45,0,0,0-.19-.62c-.86-.51-1.7-1-2.56-1.54-.34-.2-.53-.1-.58.33-.32,2.57-.67,5.14-1,7.7C286.65,254.83,286.7,255.16,287.3,255.21Zm39.87-49.16a.45.45,0,0,0,0-.53c-.45-.57-.9-1.15-1.38-1.7-.25-.29-.42,0-.59.14l-2.37,2.56c-.15.16-.3.33-.2.57.66,1.51,1.31,3,2,4.53.14.3.33.36.47,0Q326.14,208.82,327.17,206.05Zm-4.43-6.14c-.21,0-.39.07-.57.12-.52.14-1,.32-1.57.41s-.71.4-.46,1c.64,1.41,1.24,2.83,1.85,4.25.17.41.35.5.69.13.73-.8,1.47-1.59,2.22-2.37.23-.24.32-.47.06-.77-.66-.79-1.29-1.61-1.93-2.41C322.93,200.11,322.83,200,322.74,199.91Zm-42.08,20.83-1.6,1.72-3.85,4.07c-.26.27-.35.47.14.59a13.64,13.64,0,0,1,2.85.9c.51.25.81.14,1-.5.46-2,1-3.94,1.5-5.92A1,1,0,0,0,280.66,220.73Zm36.16-.85.23-.09-.66-6.24c-.84.92-1.51,1.69-2.22,2.4-.3.3-.31.48,0,.79C315,217.78,315.93,218.83,316.82,219.88Zm19.3,23.58c0-.28-.2-.42-.35-.6l-3.59-4.18c-.71-.83-.83-.83-1.63-.08-.26.24-.37.41,0,.69q2.62,2.1,5.22,4.23C335.92,243.65,336,243.69,336.13,243.46Zm-28.35-39.14c.1-.29.17-.55-.32-.41-1,.29-2,.57-3,.82-.43.11-.48.23-.17.57.58.63,1.16,1.28,1.69,2s.6.32.78-.16Zm-22.09,58.13.11,0q1.11-2.94,2.21-5.89c.13-.35.23-.73-.36-.71s-1.08-.41-1.2.46-.25,1.81-.37,2.72C285.94,260.18,285.81,261.31,285.68,262.45Zm25.22-43.88.88-.94c1.23-1.34,1.23-1.34,0-2.63l-.05-.06c-.25-.28-.41-.22-.46.13A20.67,20.67,0,0,0,310.9,218.56Zm-.91,2c-.88.79-.89.93-.23,1.29Z" transform="translate(-104.97 -184.23)" style="fill: #fff;stroke: #fff;stroke-miterlimit: 10;stroke-width: 0.800000011920929px"/>
        <path d="M291.59,204c-.23-2-.69-4-1-6.07s-.82-4-1-6l.55-.14c.56,3.11,1.13,6.22,1.68,9.33a8,8,0,0,1,.35,2.62C292,204,291.8,204,291.59,204Z" transform="translate(-104.97 -184.23)" style="fill: #fff;stroke: #fff;stroke-miterlimit: 10;stroke-width: 0.800000011920929px"/>
        <path d="M309.1,259.33a32.14,32.14,0,0,1,3.1,2.81c1.15,1,2.17,2.17,3.39,3.1a.7.7,0,0,1-.42.53c-1.67-1.36-3.14-2.95-4.72-4.4-.6-.55-1.16-1.12-1.75-1.69C308.78,259.49,308.87,259.33,309.1,259.33Z" transform="translate(-104.97 -184.23)" style="fill: #fff;stroke: #fff;stroke-miterlimit: 10;stroke-width: 0.800000011920929px"/>
        <path d="M288.23,265.33c1.78-.85,3.57-1.69,5.34-2.56l8.82-4.32a1.81,1.81,0,0,1,.38-.09c.24,0,.29.18.32.38-1.46.75-2.92,1.53-4.39,2.26-3.1,1.54-6.22,3.05-9.33,4.57a1.38,1.38,0,0,1-.83.26C288.33,265.74,288.29,265.53,288.23,265.33Z" transform="translate(-104.97 -184.23)" style="fill: #fff;stroke: #fff;stroke-miterlimit: 10;stroke-width: 0.800000011920929px"/>
        <path d="M275.34,242.43c-.63,1.83-1.6,3.52-2.36,5.3-.53,1.23-1.16,2.42-1.74,3.63l-.51-.21c1.08-2.35,2.17-4.7,3.23-7.06a7.55,7.55,0,0,0,.81-2C275,242.13,275.24,242.15,275.34,242.43Z" transform="translate(-104.97 -184.23)" style="fill: #fff;stroke: #fff;stroke-miterlimit: 10;stroke-width: 0.800000011920929px"/>
        <path d="M278.68,235.89a4.4,4.4,0,0,1,1.48,1.93.54.54,0,0,0,.21.52,5.92,5.92,0,0,1-.42,2.21l-.31.58a4.72,4.72,0,0,1-1.66,1.26.61.61,0,0,0-.54.19,9.43,9.43,0,0,1-2.12-.15c-.09-.28-.34-.31-.58-.36a3.66,3.66,0,0,1-.89-5.38,3.61,3.61,0,0,1,3.43-1.36l.52.12.28.09Z" transform="translate(-104.97 -184.23)" style="fill: #fff;stroke: #fff;stroke-miterlimit: 10;stroke-width: 0.800000011920929px"/>
        <path d="M315.92,227.29a7.21,7.21,0,0,1,1.8-.85l.61-.09,1.13.14.58.18a4.54,4.54,0,0,1,2,2.68.8.8,0,0,0,.08.55,6.14,6.14,0,0,1-.62,2.14l-.47.54a4.3,4.3,0,0,1-2.27,1.12.86.86,0,0,0-.69,0l-.91-.21c-.23-.08-.33-.36-.6-.36l-.29-.11a1.46,1.46,0,0,0-.71-.64l-.65-1.26a.87.87,0,0,0-.15-.64,5.29,5.29,0,0,1,.71-2.65A.76.76,0,0,0,315.92,227.29Z" transform="translate(-104.97 -184.23)" style="fill: #fff;stroke: #fff;stroke-miterlimit: 10;stroke-width: 0.800000011920929px"/>
        <path d="M290.68,210.62l-.41-.27c-.08-.23-.2-.41-.48-.4,0-.29-.28-.44-.42-.65s-.06-.34-.28-.36A17.49,17.49,0,0,0,289,207l.13-.56a3.91,3.91,0,0,1,2.47-2.41c.21,0,.43,0,.55-.25a6.73,6.73,0,0,1,3.09,1.07c0,.21.11.35.33.36,0,.41.35.65.47,1a.43.43,0,0,0,.27.53.93.93,0,0,0-.13.68c.21.88-.32,1.57-.59,2.33a1,1,0,0,0-.57.48,3.1,3.1,0,0,1-1.36.69,1.25,1.25,0,0,0-.7.23h-.5l-.65-.16-.46-.12Z" transform="translate(-104.97 -184.23)" style="fill: #fff;stroke: #fff;stroke-miterlimit: 10;stroke-width: 0.800000011920929px"/>
        <path d="M298.43,231a1.41,1.41,0,0,0,.73.43c0,.25.2.31.37.39l.83,1.53.11.52a4.21,4.21,0,0,1-1.9,3.7,1.26,1.26,0,0,0-.71.32,10,10,0,0,1-2.17,0c-.14-.12-.24-.32-.47-.31a3.81,3.81,0,0,1-1.9-2.12c-.05-.18-.05-.38-.24-.48l.16-1.46.17-.66a4.37,4.37,0,0,1,2.39-2.08l.72-.13,1.3.14Z" transform="translate(-104.97 -184.23)" style="fill: #fff;stroke: #fff;stroke-miterlimit: 10;stroke-width: 0.800000011920929px"/>
        <path d="M306.7,253.29l.75.19.57.24,1.16,1a.38.38,0,0,0,.36.37c-.09.38.17.67.27,1l.09.59a6.9,6.9,0,0,1-.8,2.68c-.24,0-.33.16-.39.35a4.69,4.69,0,0,1-2.7.82,3.91,3.91,0,0,1-2.92-1.75c0-.2-.08-.36-.32-.38a6.08,6.08,0,0,0-.2-1.42,1.06,1.06,0,0,0,.07-.66l.32-1a.81.81,0,0,0,.35-.54c.26-.28.63-.47.79-.85a.87.87,0,0,0,.66-.27l1.34-.38Z" transform="translate(-104.97 -184.23)" style="fill: #fff;stroke: #fff;stroke-miterlimit: 10;stroke-width: 0.800000011920929px"/>
        <path d="M293.22,233.56l-.16,1.46a10.31,10.31,0,0,0-3,.57c-.56.13-1,.26-.76-.64a13.7,13.7,0,0,0,.24-2c.05-.43.2-.61.7-.42C291.22,232.92,292.23,233.23,293.22,233.56Z" transform="translate(-104.97 -184.23)" style="fill: #fff;stroke: #fff;stroke-miterlimit: 10;stroke-width: 0.800000011920929px"/>
        <path d="M296.5,230.69l-.72.13a7.39,7.39,0,0,0-.26-2.48c-.83-5.52-1.71-11-2.57-16.53a4.69,4.69,0,0,1,0-.64,1.25,1.25,0,0,1,.7-.23,9.94,9.94,0,0,0,.35,3.2c.82,5.44,1.68,10.88,2.53,16.32A1.08,1.08,0,0,1,296.5,230.69Z" transform="translate(-104.97 -184.23)" style="fill: #fff;stroke: #fff;stroke-miterlimit: 10;stroke-width: 0.800000011920929px"/>
        <path d="M308,253.72l-.57-.24L312.67,242l3.77-8.35a2.89,2.89,0,0,0,.12-.47c.27,0,.38.28.6.36-1.1,2.44-2.18,4.88-3.29,7.31Q311,247.27,308,253.72Z" transform="translate(-104.97 -184.23)" style="fill: #fff;stroke: #fff;stroke-miterlimit: 10;stroke-width: 0.800000011920929px"/>
      </g>
    </g>
  </g>
</svg>
