<svg id="jornada_coaching" data-name="jornada coaching" xmlns="http://www.w3.org/2000/svg" viewBox="0 0 46.55 44.25">
  <title>logo</title>
  <g id="net">
    <g>
      <path d="M43.54-1.69a5.5,5.5,0,0,1,.5.56,1.83,1.83,0,0,1,.2,1.75L44,1l-.2.29c-.13,0-.18.12-.26.2l-.11,0L43,1.74l-.12.06c-.11,0-.21-.06-.31,0h-.08l-.35-.06-.12,0-.27-.1c-.15-.14-.38-.16-.5-.33L41,1a2,2,0,0,1-.32-.84V-.22A2,2,0,0,1,42.42-2Z" transform="translate(-13.36 2)" style="fill: red"/>
      <path d="M28.23.78a2,2,0,0,1,.19-2.05A1.75,1.75,0,0,1,30.24-2a1.75,1.75,0,0,1,1.4,1.3c0,.11.06.21.08.32a.38.38,0,0,0,0,.33,3.7,3.7,0,0,1-.54,1.22c-.13,0-.17.05-.17.17-.26,0-.45.2-.69.28l-.28.07a.89.89,0,0,0-.52,0l-.29-.06-.07-.06-.65-.39c0-.11-.1-.19-.23-.2A.19.19,0,0,0,28.23.78Z" transform="translate(-13.36 2)" style="fill: red"/>
      <path d="M15.14,19.05A1.83,1.83,0,0,1,13.37,17a1.79,1.79,0,0,1,2.28-1.56l.39.12c0,.11.14.11.23.13l.27.26.26.33c0,.1,0,.23.16.29a3.27,3.27,0,0,1,0,1.1l-.11.32a2.15,2.15,0,0,1-.85.89c-.21.13-.49.08-.67.26A.27.27,0,0,0,15.14,19.05Z" transform="translate(-13.36 2)" style="fill: red"/>
      <path d="M18.43,8.54a1.87,1.87,0,0,1-1-1.72,1.74,1.74,0,0,1,1-1.6,1.77,1.77,0,0,1,1.94.2c.12.09.23.19.35.29l.18.31a2.39,2.39,0,0,1,.18,1.06l-.06.35a1.84,1.84,0,0,1-2.29,1.22Z" transform="translate(-13.36 2)" style="fill: red"/>
      <path d="M46,39.19a2,2,0,0,1,.19,2A1.83,1.83,0,0,1,42.78,41c0-.12-.06-.24-.09-.36v-.4a3.65,3.65,0,0,1,.4-1,.36.36,0,0,0,.21-.27l1.07-.42a.41.41,0,0,0,.3,0c.45,0,.77.3,1.16.46A.22.22,0,0,0,46,39.19Z" transform="translate(-13.36 2)" style="fill: red"/>
      <path d="M57.54,17.76a1.88,1.88,0,0,1,2.25,1.11,1.85,1.85,0,0,1-2,2.5l-.34-.08a4.46,4.46,0,0,1-.81-.47.56.56,0,0,0-.16-.32l-.27-.6c0-.09,0-.18-.05-.24a3.4,3.4,0,0,1,.62-1.55c.1,0,.16,0,.17-.13a.15.15,0,0,0,.22-.12A.49.49,0,0,0,57.54,17.76Z" transform="translate(-13.36 2)" style="fill: red"/>
      <path d="M16.4,28.45a3.3,3.3,0,0,1-1.29.06,1.81,1.81,0,0,1-1.4-1.75,1.84,1.84,0,0,1,1.37-1.82l.2-.05.35,0,.62.16.3.1c0,.1.1.11.17.13l.31.35a1.9,1.9,0,0,1,.2,1.93c-.13.31-.42.49-.59.77A.24.24,0,0,0,16.4,28.45Z" transform="translate(-13.36 2)" style="fill: red"/>
      <path d="M29.44,40.31a1.84,1.84,0,0,1-2.14,1.2,1.86,1.86,0,0,1-1.45-1.77A6.49,6.49,0,0,1,26,39l.12-.32.8-.74c.09,0,.15,0,.17-.08.24.11.46,0,.7,0l.58.12a.35.35,0,0,0,.35.18l.29.26a1.5,1.5,0,0,1,.42.58c0,.1,0,.21.16.26-.11.22,0,.45,0,.67Z" transform="translate(-13.36 2)" style="fill: red"/>
      <path d="M56.25,28a1.67,1.67,0,0,1,1.22,1.55,1.76,1.76,0,0,1-.81,1.7,1.84,1.84,0,0,1-2,0l-.25-.14a.44.44,0,0,0-.24-.24,1,1,0,0,0-.26-.42.21.21,0,0,0-.12-.26,3.27,3.27,0,0,1,.32-1.54c.21-.1.31-.31.46-.47l.12-.06c.13,0,.26-.07.29-.23.31.11.62-.1.93,0A.6.6,0,0,0,56.25,28Z" transform="translate(-13.36 2)" style="fill: red"/>
      <path d="M20.94,35a2.38,2.38,0,0,1-1.58.27,1.81,1.81,0,0,1-1.08-2.78c.08-.14.24-.24.25-.42.14,0,.22,0,.27-.16a2.24,2.24,0,0,1,1.72-.11l.26.11a2.17,2.17,0,0,1,.87,1.42c0,.1-.08.21,0,.31a4.42,4.42,0,0,1-.52,1.23C21,34.8,21,34.89,20.94,35Z" transform="translate(-13.36 2)" style="fill: red"/>
      <path d="M49.49,3.44a1.86,1.86,0,0,1,3.24.4A1.91,1.91,0,0,1,52,6l-.37.22a2.71,2.71,0,0,1-1.19,0l-.26-.07A.76.76,0,0,0,49.86,6l-.26-.29-.37-.57a.18.18,0,0,0-.09-.23l.17-1.15A.44.44,0,0,0,49.49,3.44Z" transform="translate(-13.36 2)" style="fill: red"/>
      <path d="M29.44,40.31l.11-.41a1.48,1.48,0,0,0,.28.06l3.33.07,6.33.11,3.2,0v.4a15.1,15.1,0,0,0-2.7-.11c-2.56-.06-5.12-.1-7.68-.14C31.35,40.33,30.39,40.26,29.44,40.31Z" transform="translate(-13.36 2)" style="fill: red"/>
      <path d="M51.67,6.25,52,6a3.41,3.41,0,0,0,.53,1.36q2.15,4.64,4.33,9.26c.18.39.26.85.65,1.12a.49.49,0,0,1-.38.1,6.71,6.71,0,0,1-.59-1.12l-3-6.37C52.94,9,52.31,7.63,51.67,6.25Z" transform="translate(-13.36 2)" style="fill: red"/>
      <path d="M54.17,30.92a.44.44,0,0,1,.24.24l-4.72,4.53L46.18,39a1.82,1.82,0,0,1-.19.14.22.22,0,0,1-.17-.19,1.11,1.11,0,0,1,.14-.2l4.11-3.94Z" transform="translate(-13.36 2)" style="fill: red"/>
      <path d="M31.75,0a.38.38,0,0,1,0-.33l3.75.05,4.82,0c.12,0,.25,0,.37,0V.14a2.79,2.79,0,0,0-.36,0l-5.6,0Z" transform="translate(-13.36 2)" style="fill: red"/>
      <path d="M20.95,6l-.18-.31L26.5,1.9A17.35,17.35,0,0,1,28.23.78a.19.19,0,0,1,.1.21,2.44,2.44,0,0,1-.78.57L23.8,4.08C22.85,4.73,21.85,5.3,20.95,6Z" transform="translate(-13.36 2)" style="fill: red"/>
      <path d="M18.43,8.54l.35.11c-.08.19-.17.37-.25.56q-.59,1.47-1.17,2.94c-.44,1.12-.88,2.25-1.32,3.37l-.39-.12a9.19,9.19,0,0,0,.77-1.76C17.12,12,17.77,10.24,18.43,8.54Z" transform="translate(-13.36 2)" style="fill: red"/>
      <path d="M56.25,28a.6.6,0,0,1-.34-.09c.23-1,.49-2,.7-3a37.17,37.17,0,0,0,.84-3.69l.34.08c-.18,1.11-.51,2.2-.78,3.29S56.51,26.91,56.25,28Z" transform="translate(-13.36 2)" style="fill: red"/>
      <path d="M20.94,35c0-.08.07-.17.2-.13a3.77,3.77,0,0,1,.38.24l4.58,3.61L26,39l-4.79-3.77A2.21,2.21,0,0,1,20.94,35Z" transform="translate(-13.36 2)" style="fill: red"/>
      <path d="M49.49,3.44a.44.44,0,0,1-.18.28c-1.19-.62-2.37-1.26-3.56-1.87A10.24,10.24,0,0,0,44,1l.2-.37L46.76,2C47.66,2.5,48.55,3,49.49,3.44Z" transform="translate(-13.36 2)" style="fill: red"/>
      <path d="M15.64,24.87l-.35,0c0-1-.09-2.08-.09-3.13a24.94,24.94,0,0,1-.06-2.72.27.27,0,0,1,.22,0s.06.07.06.1Q15.53,22,15.64,24.87Z" transform="translate(-13.36 2)" style="fill: red"/>
      <path d="M18.79,31.88c0,.13-.12.2-.27.16a5.77,5.77,0,0,1-.83-1.31c-.43-.76-.92-1.49-1.29-2.28a.24.24,0,0,1,.23-.15c.45.69.86,1.4,1.25,2.12A7.22,7.22,0,0,0,18.79,31.88Z" transform="translate(-13.36 2)" style="fill: red"/>
      <path d="M49.6,5.67l.26.29-.65.74c-.61.69-.61.69,0,1.38.16.19.23.18.31-.05.23-.62.47-1.22.71-1.84l.26.07a15.06,15.06,0,0,1-.76,2,.46.46,0,0,0,.07.56c.61.73,1.19,1.48,1.78,2.22,1.42,1.79,2.84,3.57,4.24,5.37A7.55,7.55,0,0,1,56.94,18c0,.11-.07.14-.17.13a1.67,1.67,0,0,1-.21-.19l-3.3-4.17L49.81,9.38c-.08-.11-.16-.26-.31-.24s-.15.21-.19.33c-.33.86-.66,1.72-1,2.57a.79.79,0,0,0,0,.67c.37.8.71,1.61,1.07,2.41.68,1.55,1.37,3.09,2,4.64.11.25.21.35.51.3.76-.12,1.53-.19,2.29-.26a10.35,10.35,0,0,1,1.92-.16c.09.06.07.15.05.24-1.38.16-2.75.33-4.13.48-.26,0-.35.08-.22.35.35.78.7,1.56,1,2.34.09.21.16.24.34.09.64-.52,1.3-1,1.94-1.54a7.34,7.34,0,0,0,1.31-1.11.56.56,0,0,1,.16.32,1.59,1.59,0,0,1-.48.44l-2.81,2.23c-.13.1-.21.18-.12.37.26.56.52,1.12.75,1.7.32.8.76,1.55,1,2.39,0,.16-.16.2-.29.23a.26.26,0,0,0,0-.08c-.49-1.37-1.17-2.67-1.72-4-.05-.13-.15-.2-.29-.08l-.9.72c-.14.11-.09.21,0,.31l2.79,3.2c-.16.15-.26.36-.46.47a1.35,1.35,0,0,1-.44-.3c-1-.79-2-1.57-3-2.37-.2-.16-.36-.21-.58,0L45,30c-.12.09-.24.18-.24.36q0,1.13,0,2.26c0,.19,0,.28.26.21q3.84-1.19,7.68-2.37a2.28,2.28,0,0,1,1.06-.26.21.21,0,0,1,.12.26,8.36,8.36,0,0,0-1.26.36l-7.57,2.32a.36.36,0,0,0-.3.41q0,1.24,0,2.47a18.46,18.46,0,0,1-.07,2.47.41.41,0,0,1-.3,0q0-2.43.09-4.86c0-.25-.1-.25-.3-.19-.74.24-1.49.49-2.24.7a6.74,6.74,0,0,1-1.5.4l0-.3,3.47-1c.62-.18.61-.18.62-.81,0-.16,0-.33,0-.49,0-.46,0-.93,0-1.45-.71.56-1.35,1.07-2,1.57S41,33.27,40.23,33.77a.19.19,0,0,1-.18-.19,1.81,1.81,0,0,1,.15-.14c1.35-1.07,2.69-2.14,4-3.19a.6.6,0,0,0,.26-.52q0-3.4.06-6.8a.44.44,0,0,1,.35,0l-.11,6.9.29-.24c1.44-1.13,2.88-2.26,4.31-3.4.73-.59.73-.6,0-1.2-1.1-.89-2.22-1.76-3.33-2.64l.24-.27L50,25c.47.38.47.36.93,0,.2-.16.2-.26,0-.46-.81-.92-1.64-1.82-2.38-2.79A1.59,1.59,0,0,0,46.66,21h0a.41.41,0,0,1,0-.28c.27-.13.59,0,.88-.19-.39-.45-.76-.89-1.14-1.32-.14-.16-.25-.47-.45-.43s-.22.37-.32.58l-.29-.09c.08-.22.17-.43.24-.65s.11-.24,0-.35a4.93,4.93,0,0,0-.92-1l0-.05c-.06,0,0,0,0,.07-.07.64.16,1.26.13,1.9l-.31,0c-.08-.79-.16-1.59-.24-2.38a.72.72,0,0,0-.18-.41L42.38,14.6c-.15-.17-.27-.19-.43,0a10.59,10.59,0,0,0-1,1.1,2.85,2.85,0,0,0-.26,1.59s0,.07.08.09c.91.76,1.76,1.58,2.7,2.3a.38.38,0,0,1-.22.27l-2.3-2c-.09-.08-.18-.23-.3-.17s-.09.22-.11.34c-.13,1.13-.25,2.26-.39,3.38,0,.27,0,.3.28.25.82-.17,1.64-.31,2.47-.46a.44.44,0,0,1,.07.33c-.92.09-1.8.36-2.71.5-.23,0-.22.22-.24.38-.15,1.26-.29,2.52-.43,3.79.16,0,.21-.12.29-.2.79-.84,1.6-1.67,2.35-2.54a5,5,0,0,0,1.07-1.28.74.74,0,0,1,.36.33c-.11,0-.17.08-.23.15-1.22,1.32-2.44,2.65-3.68,4a1.2,1.2,0,0,0-.31.74l-.64,5.43-.3,0,.63-5.47c-.69.75-1.25,1.45-1.91,2a1.11,1.11,0,0,0-.3,1.56c.36.66.48,1.43.89,2.07a.44.44,0,0,1-.34.14c-.05-.11-.11-.22-.16-.33l-.84-2.14c-.08-.22-.17-.3-.36-.08-.41.46-.84.9-1.27,1.34-.11.12-.17.21,0,.32l2.22,1.32a.41.41,0,0,1-.18.27l-2.11-1.26c-.14-.08-.29-.22-.44-.06-.49.5-1,1-1.51,1.6l3.9.26a.54.54,0,0,1,0,.33c-1.22-.09-2.43-.15-3.65-.27a1,1,0,0,0-.91.42c-.64.72-1.32,1.4-2,2.13A6.3,6.3,0,0,0,29,38.39l-.29-.26,3.42-3.73c-.79-.07-1.47-.12-2.14-.19-.21,0-.26.09-.31.24l-1.31,3.5-.58-.12a2.7,2.7,0,0,1,0-.33q.2-1.5.42-3c0-.24,0-.41-.3-.42-.5,0-1-.07-1.5-.12-.24,0-.32,0-.24.3.18.58.35,1.16.49,1.74a8.81,8.81,0,0,1,.44,1.86C27,38,27,38,26.9,38s-.12-.18-.14-.28c-.32-1.14-.65-2.27-1-3.42-.06-.21-.14-.35-.37-.36l-1.19-.08-2.58-.2c-.1-.1,0-.21,0-.31l4,.29-1.09-3.94a20.33,20.33,0,0,1-.58-2.22.31.31,0,0,1,.27-.1q.84,3,1.68,6c0,.17.11.27.3.28l1.8.13c.2,0,.29,0,.32-.29.15-1.35.32-2.69.53-4a.54.54,0,0,0-.31-.65c-1.17-.69-2.32-1.4-3.48-2.1l.16-.29,3.7,2.25a1.93,1.93,0,0,0,.09-.28q.17-1.24.32-2.48c.05-.41.1-.82.15-1.22,0-.14,0-.28-.2-.22-.59.15-1.18.28-1.77.4a17,17,0,0,1-2.09.43A.27.27,0,0,1,25.3,25c1.09-.24,2.16-.54,3.26-.71.77-.13,1.21-.42,1.12-1.26a.3.3,0,0,1,0-.08c.14-.78.14-.78-.61-1l-.11,0L26.4,21c-.14,0-.3-.12-.4.08-.48,1-1,1.94-1.45,3l-.3-.17c.45-.89.9-1.78,1.36-2.67.23-.44-.16-.46-.38-.58s-.34.07-.39.28c-.24,1-.49,1.94-.73,2.91l-.26-.06c.25-1,.54-2,.7-3,0-.15.09-.29-.13-.36A8,8,0,0,1,23.33,20a1.17,1.17,0,0,0-1.61.38c-1.43,1.65-3,3.2-4.46,4.79a.66.66,0,0,0-.23.42l-.31-.35,2.2-2.34,2.8-3c.14-.15.38-.34,0-.48s-1-.33-1.56-.51c-.22-.07-.3.05-.38.2l-2.19,4.1a21.15,21.15,0,0,1-1,1.86l-.3-.1a14.23,14.23,0,0,0,.83-1.52L19.48,19c.11-.2.1-.31-.15-.38-.82-.23-1.63-.48-2.45-.73l.11-.32c.8.25,1.6.48,2.39.75.35.12.48,0,.63-.3.46-.89,1-1.76,1.41-2.65a4.66,4.66,0,0,0,.51-1.15l-2,.89-3,1.36c-.12-.06-.12-.18-.16-.29,1.57-.72,3.14-1.46,4.73-2.14a2.18,2.18,0,0,0,1.22-1.19c.16-.35.35-.68.53-1l1.88-3.52c-.52-.13-1-.24-1.48-.39A.56.56,0,0,0,23,8.2l-5.62,6.65a5,5,0,0,0-.84,1.06l-.27-.26,2.47-2.94,4.12-4.83-1.79-.46.06-.35,1.8.47a.27.27,0,0,0,.32-.11c1.16-1.38,2.31-2.76,3.48-4.13.61-.71,1.16-1.46,1.83-2.12l.65.39a.86.86,0,0,0-.28.39C28.35,3,27.77,4.11,27.21,5.17c-.48.91-1,1.83-1.44,2.73-.11.21-.07.32.15.31a3.45,3.45,0,0,1,1.17.24c.37.12.55.06.62-.35s.2-1,.31-1.45c.39-1.68.83-3.34,1.26-5l.29.06c0,.24-.09.49-.15.73-.49,1.94-1,3.88-1.44,5.84-.06.28,0,.38.27.46a12,12,0,0,1,1.61.34l-.07.29L28.13,9c-.15,0-.31-.11-.37.12l-.6,2.34c.42-.19.73-.35,1.06-.47a7.89,7.89,0,0,1,1.61-.67c.11,0,.14.09.14.18a.72.72,0,0,1-.32.18l-2.35,1.09c-.11.05-.23.08-.27.23q-.37,1.45-.74,2.9a14.09,14.09,0,0,0,1.41-1.38c.83-.89,1.7-1.75,2.48-2.69.14,0,.2.09.24.21a1.15,1.15,0,0,1-.13.21c-1.09,1.16-2.19,2.31-3.27,3.48-.44.48-1.07.87-1.11,1.62a5.84,5.84,0,0,1-.23,1.13c-.2.8-.41,1.6-.61,2.4,0,.12-.12.27.07.35l.53.22a.22.22,0,0,0,.32-.14c.2-.43.44-.85.65-1.28l4-7.86.33.13c-.11.19-.22.38-.32.57l-1.84,3.64-2.42,4.78c-.07.13-.18.28.06.36l3.09,1c.31.1.35-.08.38-.31q.24-1.92.49-3.84l.8-6.16.33.08c0,.31-.09.62-.13.94l-.77,5.91c-.14,1.11-.29,2.23-.44,3.34,0,.17,0,.31.18.34.57.09,1.07.42,1.64.51l-.08.34c-.5-.17-1-.33-1.51-.52-.25-.1-.33,0-.35.21a7,7,0,0,1-.12,1c-.12.46.1.39.39.32a5.24,5.24,0,0,1,1.52-.29c.1.05.1.15.12.24-.62.14-1.23.29-1.85.41-.25,0-.31.18-.34.39-.17,1.32-.34,2.63-.52,3.95a.37.37,0,0,0,.17.42l1.3.78c.2.12.32.08.4-.14s.26-.69.39-1l1.41-3.68c.12,0,.17.09.24.16-.51,1.62-1.19,3.18-1.77,4.78-.08.22-.06.31.13.42.82.49,1.65,1,2.46,1.49.29.19.46.18.68-.1a12.84,12.84,0,0,1,1.21-1.29.57.57,0,0,0,.17-.74c-.61-1.52-1.19-3-1.77-4.57a.64.64,0,0,1,.36-.16.62.62,0,0,0,0,.2l1.7,4.38c.08.2.17.18.29,0l.27-.26c.58-.62,1.17-1.24,1.73-1.88.23-.27.55-.46.59-.9.12-1.31.3-2.62.47-3.92,0-.3-.08-.32-.32-.27L35.61,23l-.06-.26a.82.82,0,0,1,.15-.06l3.6-.71c.28-.05.48-.12.5-.47.05-.66.15-1.31.23-2s.14-1.25.23-1.88c0-.33-.17-.48-.39-.62s-.3.11-.41.22L35.14,22c-.09,0-.19-.07-.19-.2a4,4,0,0,1,.68-.82l3.72-4c.16-.17.12-.26,0-.4l-1.93-1.68c-.16-.14-.25-.17-.34.07-.36,1-.74,2-1.1,3-.44,1.22-1,2.42-1.36,3.66l-.32-.1c.24-.66.48-1.32.72-2l1.79-4.73a.44.44,0,0,0-.16-.57c-.8-.68-1.55-1.4-2.36-2.07A5.82,5.82,0,0,0,32.84,11a.49.49,0,0,1,.29-.25.64.64,0,0,1,.15.07c1.14,1,2.29,2,3.42,3,.22.19.31.31.45-.07q.52-1.45,1.12-2.88A1,1,0,0,0,38,9.49a2,2,0,0,1-.27-.31C37,8.35,37,8.38,36,8.63a16.55,16.55,0,0,1-2.47.6A.22.22,0,0,1,33.36,9c1.06-.21,2.1-.54,3.15-.8.24-.06.16-.18.06-.29L36,7.25c-.67-.78-.65-.77-1.42-.08a12.14,12.14,0,0,1-1.49,1.28c-.11,0-.16-.08-.17-.18a21.08,21.08,0,0,1,1.89-1.71c.24-.21.31-.36.07-.63Q33.46,4.29,32,2.62a7.79,7.79,0,0,1-1-1.24c0-.12,0-.18.17-.17a1.16,1.16,0,0,1,.16.13c1.26,1.45,2.53,2.9,3.77,4.37.25.29.37.24.6,0,1.17-1,2.36-2.07,3.52-3.13A14,14,0,0,0,41,1l.24.32-5.4,4.8c-.17.15-.16.24,0,.4.36.4.71.8,1,1.22a.5.5,0,0,0,.6.2c.62-.18,1.24-.35,1.87-.51a.47.47,0,0,0,.33-.33c.28-.74.55-1.49.84-2.23.41-1.08.83-2.15,1.24-3.22l.27.1c-.43,1.16-.85,2.31-1.28,3.47-.21.56-.44,1.12-.65,1.68,0,.1-.13.21,0,.3s.21,0,.31,0A5.77,5.77,0,0,1,41,7c.45,0,.58-.27.61-.7,0-.71.16-1.41.24-2.12s.17-1.6.25-2.4l.35.06C42.31,3.18,42.13,4.56,42,6c0,.24-.24.56,0,.71s.49-.11.74-.14.33-.15.3-.42c-.16-1.43-.31-2.86-.46-4.3.1-.07.21,0,.31,0,.12,1.15.26,2.29.36,3.44s.08,1.14,1.2.84A1.7,1.7,0,0,1,44.7,6c.24,0,.26-.12.17-.33C44.33,4.45,43.79,3.23,43.26,2c-.06-.13-.1-.26-.27-.27l.48-.21a1.11,1.11,0,0,0,0,.24C44,2.86,44.46,4,45,5c.35.77.37.77,1.2.57.57-.13.56-.13.19-.6L43.58,1.48c.08-.08.13-.19.26-.2a1.28,1.28,0,0,0,.09.14c1,1.26,2,2.52,3,3.79.11.14.21.12.36.09a14.8,14.8,0,0,1,1.88-.44.18.18,0,0,1,.09.23l-1.62.45c-.19.05-.33.11-.17.32s.55.69.82,1c.07.08.17.13.25,0A6.66,6.66,0,0,0,49.6,5.67ZM26.28,13.91c.11-.44.23-.88.34-1.32,0-.13.13-.28,0-.39s-.26,0-.37.07c-1.07.48-2.13,1-3.18,1.46-.21.1-.48.14-.61.38l-2.26,4.21c-.11.21-.06.31.17.38.54.17,1,.4,1.59.55a.46.46,0,0,0,.53-.15c.7-.77,1.4-1.55,2.15-2.28A4.33,4.33,0,0,0,26.28,13.91Zm21.78-1A3.08,3.08,0,0,0,47.58,14c-.51,1.31-1,2.64-1.5,4a.47.47,0,0,0,.12.55c.5.55,1,1.1,1.45,1.69a.62.62,0,0,0,.65.27c.84-.11,1.69-.22,2.54-.3.32,0,.39-.1.25-.41-.75-1.67-1.47-3.34-2.2-5C48.62,14.17,48.34,13.58,48.05,12.94Zm-2.38,5,.08-.06,2-5.29a.34.34,0,0,0,0-.28L46.71,9.84c-.1-.23-.21-.21-.36,0l-2.17,2.38a.6.6,0,0,0-.16.52c.13,1.13.23,2.27.35,3.4a.94.94,0,0,0,.18.54Zm-6.92-7.5c-.47,1.21-.91,2.34-1.34,3.49-.06.17-.23.36,0,.56l2.13,1.84c.1.08.22.17.33,0,.26-.31.63-.54.67-1,.07-.77.17-1.53.26-2.29a.45.45,0,0,0-.1-.38Zm3-3c-.19,1.6-.38,3.19-.57,4.79,0,.24-.11.49.08.71s.42.47.62.72.3.19.47,0a10.05,10.05,0,0,1,.84-.91,1.1,1.1,0,0,0,.35-1.07c-.15-1.34-.3-2.68-.43-4-.09-.85-.08-.85-.93-.63C42,7,41.81,7.1,41.81,7.38Zm-18.95,6c.07,0,.1,0,.12,0l3.63-1.66a.42.42,0,0,0,.23-.32c.19-.75.37-1.5.58-2.24.07-.25,0-.35-.25-.4-.43-.08-.85-.2-1.29-.28s-.48.06-.62.33c-.45.86-.92,1.72-1.38,2.58C23.54,12.08,23.21,12.73,22.86,13.39ZM46.37,9.28a.6.6,0,0,0-.08-.38c-.35-.79-.71-1.58-1-2.38a.33.33,0,0,0-.48-.22,10.22,10.22,0,0,1-1,.28c-.28.05-.34.18-.3.45.17,1.5.32,3,.47,4.5,0,.09,0,.22.07.26s.18-.09.25-.17l1.34-1.45Zm6.32,14.23a1.79,1.79,0,0,0-.07-.23c-.37-.85-.74-1.69-1.1-2.53a.36.36,0,0,0-.45-.25l-2.54.29c-.09,0-.21,0-.25.09s.08.16.14.23c.73.86,1.46,1.72,2.2,2.56.26.3.47.84.79.83s.66-.44,1-.7C52.51,23.72,52.64,23.66,52.69,23.51ZM30.11,33.91l2.16.17a.33.33,0,0,0,.28-.14c.45-.5.9-1,1.36-1.49.18-.19.17-.29-.06-.43-.77-.45-1.53-.9-2.27-1.38-.33-.22-.46-.07-.57.21-.35.92-.68,1.85-1,2.77C29.91,33.79,29.92,33.89,30.11,33.91ZM40.89,12.37l.61-5.19-1.59.42c-.11,0-.14.11-.18.21l-.75,2c-.05.14-.12.28,0,.42ZM23.52,7.61c.53.14,1,.23,1.43.37s.43,0,.57-.27c.76-1.46,1.55-2.91,2.33-4.36.33-.61.64-1.23,1-1.85l-.07-.05Zm5.41,26.23c.18-.07.51.22.66-.15.43-1.07.83-2.14,1.24-3.22a.23.23,0,0,0-.1-.32l-1.3-.78c-.17-.1-.27-.05-.3.17-.16,1.3-.34,2.61-.51,3.91C28.6,33.64,28.62,33.81,28.93,33.84Zm20.25-25a.23.23,0,0,0,0-.27c-.23-.29-.46-.58-.7-.86s-.21,0-.3.07L47,9.11c-.08.08-.15.17-.1.29.33.77.67,1.54,1,2.3.07.15.17.18.24,0ZM46.92,5.76l-.29.06c-.27.07-.53.16-.8.21s-.36.2-.23.49c.32.71.63,1.44.94,2.16.09.21.18.26.35.07.37-.41.75-.8,1.12-1.21.12-.12.16-.24,0-.39-.33-.4-.65-.82-1-1.23ZM25.56,16.33l-.81.87-2,2.06c-.13.14-.18.24.07.3a6.92,6.92,0,0,1,1.45.46c.26.13.41.07.49-.25.24-1,.51-2,.76-3A.49.49,0,0,0,25.56,16.33Zm18.36-.43.12,0-.34-3.17c-.43.47-.77.86-1.13,1.22-.15.15-.16.25,0,.4C43,14.83,43.46,15.36,43.92,15.9Zm9.8,12c0-.14-.1-.21-.18-.31l-1.82-2.12c-.36-.42-.42-.42-.83,0-.13.12-.19.21,0,.35l2.65,2.15C53.62,28,53.67,28,53.72,27.87ZM39.32,8c.05-.15.09-.28-.16-.21-.51.15-1,.29-1.54.42-.22.05-.24.12-.09.29.3.32.59.65.86,1s.31.16.4-.08ZM28.11,37.51h.05l1.12-3c.07-.18.12-.37-.18-.36s-.55-.21-.61.23-.13.92-.19,1.38S28.17,36.93,28.11,37.51Zm12.8-22.28.45-.48c.62-.68.62-.68,0-1.33l0,0c-.13-.14-.21-.11-.24.07A10.5,10.5,0,0,0,40.91,15.23Zm-.46,1c-.45.4-.45.47-.11.66Z" transform="translate(-13.36 2)" style="fill: red"/>
      <path d="M31.11,7.85c-.12-1-.35-2.05-.52-3.08s-.41-2-.51-3l.28-.07c.28,1.58.57,3.16.85,4.74a4.05,4.05,0,0,1,.18,1.33C31.33,7.84,31.22,7.84,31.11,7.85Z" transform="translate(-13.36 2)" style="fill: red"/>
      <path d="M40,35.93a16.32,16.32,0,0,1,1.58,1.43c.58.52,1.1,1.1,1.72,1.58a.36.36,0,0,1-.21.27c-.85-.69-1.59-1.5-2.4-2.24-.3-.28-.59-.57-.89-.86C39.83,36,39.88,35.93,40,35.93Z" transform="translate(-13.36 2)" style="fill: red"/>
      <path d="M29.4,39l2.71-1.3,4.48-2.19a.92.92,0,0,1,.19,0c.12,0,.15.09.16.19-.74.38-1.48.77-2.23,1.15L30,39.1a.7.7,0,0,1-.42.13C29.45,39.18,29.43,39.08,29.4,39Z" transform="translate(-13.36 2)" style="fill: red"/>
      <path d="M22.85,27.35c-.32.93-.81,1.79-1.2,2.69-.27.63-.59,1.23-.89,1.84l-.26-.11c.55-1.19,1.1-2.38,1.64-3.58a3.83,3.83,0,0,0,.41-1C22.68,27.19,22.81,27.21,22.85,27.35Z" transform="translate(-13.36 2)" style="fill: red"/>
      <path d="M24.55,24a2.24,2.24,0,0,1,.75,1,.27.27,0,0,0,.11.27,3,3,0,0,1-.21,1.12l-.16.29a2.4,2.4,0,0,1-.84.64.31.31,0,0,0-.27.1,4.79,4.79,0,0,1-1.07-.08c0-.14-.17-.16-.3-.18a1.86,1.86,0,0,1-.45-2.73,1.83,1.83,0,0,1,1.74-.69l.26.06.14,0Z" transform="translate(-13.36 2)" style="fill: red"/>
      <path d="M43.46,19.66a3.66,3.66,0,0,1,.92-.43l.31,0,.57.07.29.09a2.31,2.31,0,0,1,1,1.36.41.41,0,0,0,0,.28,3.12,3.12,0,0,1-.32,1.09l-.24.27a2.18,2.18,0,0,1-1.15.57.44.44,0,0,0-.35,0l-.46-.11c-.12,0-.17-.18-.31-.18l-.15-.05a.74.74,0,0,0-.36-.33L43,21.61a.44.44,0,0,0-.07-.33,2.69,2.69,0,0,1,.36-1.35A.38.38,0,0,0,43.46,19.66Z" transform="translate(-13.36 2)" style="fill: red"/>
      <path d="M30.65,11.2l-.21-.14c0-.12-.1-.21-.24-.21,0-.15-.14-.22-.21-.33s0-.17-.14-.18a8.88,8.88,0,0,0-.06-1l.07-.29a2,2,0,0,1,1.26-1.22c.11,0,.22,0,.28-.13A3.41,3.41,0,0,1,33,8.27c0,.1.05.18.17.18,0,.21.18.33.24.51a.22.22,0,0,0,.14.27.47.47,0,0,0-.07.35c.11.45-.16.8-.3,1.18a.49.49,0,0,0-.29.25,1.58,1.58,0,0,1-.69.35.64.64,0,0,0-.36.12h-.26l-.33-.08L31,11.33Z" transform="translate(-13.36 2)" style="fill: red"/>
      <path d="M34.58,21.56a.71.71,0,0,0,.37.22c0,.13.1.16.19.2l.42.78.06.26a2.14,2.14,0,0,1-1,1.88.64.64,0,0,0-.36.16,5.05,5.05,0,0,1-1.1,0c-.07-.06-.12-.16-.24-.16a1.93,1.93,0,0,1-1-1.08c0-.09,0-.19-.12-.24l.08-.74.08-.34a2.22,2.22,0,0,1,1.22-1.05l.37-.07.66.07Z" transform="translate(-13.36 2)" style="fill: red"/>
      <path d="M38.78,32.86l.38.1.29.12.59.5a.19.19,0,0,0,.18.19c0,.19.09.34.14.51l0,.3A3.51,3.51,0,0,1,40,35.93c-.12,0-.17.08-.2.18a2.38,2.38,0,0,1-1.37.41,2,2,0,0,1-1.48-.89c0-.1,0-.18-.16-.19a3.09,3.09,0,0,0-.1-.72.54.54,0,0,0,0-.33l.16-.53a.41.41,0,0,0,.18-.27c.13-.14.32-.24.4-.43A.44.44,0,0,0,37.8,33l.68-.19Z" transform="translate(-13.36 2)" style="fill: red"/>
      <path d="M31.93,22.85l-.08.74a5.24,5.24,0,0,0-1.52.29c-.29.06-.51.13-.39-.32a7,7,0,0,0,.12-1c0-.22.1-.31.35-.21C30.92,22.52,31.43,22.67,31.93,22.85Z" transform="translate(-13.36 2)" style="fill: red"/>
      <path d="M33.6,21.39l-.37.07a3.75,3.75,0,0,0-.13-1.26c-.42-2.8-.87-5.6-1.3-8.39a2.38,2.38,0,0,1,0-.33.64.64,0,0,1,.36-.12A5,5,0,0,0,32.33,13c.42,2.76.85,5.52,1.28,8.29A.55.55,0,0,1,33.6,21.39Z" transform="translate(-13.36 2)" style="fill: red"/>
      <path d="M39.45,33.08,39.16,33l2.65-5.85,1.92-4.24a1.47,1.47,0,0,0,.06-.24c.14,0,.19.14.31.18-.56,1.24-1.11,2.48-1.67,3.71Z" transform="translate(-13.36 2)" style="fill: red"/>
    </g>
  </g>
</svg>
